<?xml version="1.0" encoding="utf-8"?>
<!-- Generator: Adobe Illustrator 19.0.0, SVG Export Plug-In . SVG Version: 6.00 Build 0)  -->
<svg version="1.1" id="Layer_1" xmlns="http://www.w3.org/2000/svg" xmlns:xlink="http://www.w3.org/1999/xlink" x="0px" y="0px"
	 viewBox="0 0 1000 1000" style="enable-background:new 0 0 1000 1000;" xml:space="preserve">
<style type="text/css">
	.st0{fill:#5F4B8B;}
	.st1{fill:#FFFFFF;}
</style>
<circle id="XMLID_1_" class="st0" cx="500" cy="499.2" r="451.5"/>
<path id="XMLID_2_" class="st1" d="M500,16.5c-265.3,0-480.3,216.2-480.3,482.8S234.7,982,500,982c265.3,0,480.3-216.2,480.3-482.8
	S765.3,16.5,500,16.5z M663.6,795c-16.8,0-33.3-3.1-48.2-9c-5.6-2.2-11.2-5-16.5-7.7c-41.7-23.1-70-67.5-70-118.8
	c0-19.3,4-37.7,11.2-54.1c-12.4-4.6-25.8-7.1-39.8-7.1c-14,0-27.4,2.5-39.8,7.1c7.1,16.5,11.2,34.8,11.2,54.1
	c0,51-28.3,95.8-70,118.8c-5.3,3.1-10.9,5.6-16.5,7.7c-14.9,5.9-31.1,9-48.2,9c-74.4,0-134.7-60.6-134.7-135.6
	S262.7,523.8,337,523.8c48.8,0,91.4,26.2,115.1,65.4c14.9-5.9,31.4-9,48.2-9c16.8,0,33.3,3.1,48.2,9c23.6-39.2,66.3-65.4,115.1-65.4
	c74.3,0,134.7,60.7,134.7,135.7S738,795,663.6,795z M839.4,582.9c-9-23.3-65.3-57.8-73.1-59.4c-61.6-28-105.1-89.6-107-161.8v-1.9
	c-0.3,0.9-0.6,2.2-1.2,3.1c-24.6,63.8-83.7,110.4-154.6,116.4c30.8-20.8,55.4-50.4,69.1-85.8c-21.2,23-45.5,43.2-71.9,60
	c-14,9-28.6,17.1-43.9,23.9c-29.3,13.4-60.7,23.7-93.3,28.9h-0.3c-10.9,1.9-21.8,4.1-33.3,5c3.4-2.8,6.5-5.6,9.7-8.7
	c23-22.4,39.8-50.7,48.5-82.5c-20.2,38-53.5,68.1-94,84c-0.3,0-0.6,0.3-0.9,0.3c-11.2,4.3-22.7,7.5-34.8,9.6
	c-23,9-43.9,22.4-61.3,39.5c-12.7,12.4-23.6,26.8-32.6,42.6c-6.2-26.8-9.3-54.4-9.3-83.1c0-76.5,23.3-147.1,62.8-205
	c49.5-72.2,124.4-124.7,211.2-143.4c0-19.6,7.9-37.4,20.7-50.3s30.5-20.9,50.2-20.9c39.2,0,71,32,71,71.2
	C696,191.6,796.1,288,831.6,413.1c7.5,26.1,12.2,53.2,13.7,81.2v38.9C844.4,549.9,842.5,566.8,839.4,582.9z M663.6,542.1
	c-41.7,0-78.4,21.8-98.9,54.7c-3.1,5-5.9,10.3-8.4,15.9c-6.2,14.3-9.6,30.2-9.6,46.7c0,44.5,24.6,83.1,60.7,103
	c5.3,2.8,10.9,5.3,16.5,7.5c12.4,4.6,25.8,7.1,39.8,7.1c64.7,0,117-52.3,117-117.2C780.6,594.7,728,542.1,663.6,542.1z M435.6,596.6
	c-20.8-33-57.2-54.7-98.9-54.7c-64.7,0-117,52.5-117,117.6c0,65,52.6,117.6,117,117.6c14,0,27.4-2.5,39.8-7.1
	c5.9-2.2,11.2-4.7,16.5-7.5c36.1-19.9,60.7-58.5,60.7-103.3c0-16.5-3.4-32.4-9.6-46.6C441.8,606.8,438.7,601.6,435.6,596.6z"/>
</svg>
