<?xml version="1.0" encoding="utf-8"?>
<!-- Generator: Adobe Illustrator 19.0.0, SVG Export Plug-In . SVG Version: 6.00 Build 0)  -->
<svg version="1.1" id="Layer_1" xmlns="http://www.w3.org/2000/svg" xmlns:xlink="http://www.w3.org/1999/xlink" x="0px" y="0px"
	 viewBox="-154.7 3 149.4 150.2" style="enable-background:new -154.7 3 149.4 150.2;" xml:space="preserve">
<style type="text/css">
	.st0{fill:#1A1616;}
</style>
<path id="XMLID_17_" class="st0" d="M-80,3c-41.2,0-74.7,33.6-74.7,75.1s33.4,75.1,74.7,75.1c41.2,0,74.7-33.6,74.7-75.1
	S-38.8,3-80,3z M-54.6,124c-2.6,0-5.2-0.5-7.5-1.4c-0.9-0.3-1.7-0.7-2.6-1.2c-6.5-3.6-10.9-10.5-10.9-18.5c0-3,0.6-5.8,1.8-8.4
	c-1.9-0.7-4-1.1-6.2-1.1s-4.3,0.4-6.2,1.1c1.1,2.6,1.8,5.4,1.8,8.4c0,8-4.4,14.9-10.9,18.5c-0.8,0.5-1.7,0.9-2.5,1.2
	c-2.3,0.9-4.9,1.4-7.5,1.4c-11.6,0-21-9.4-21-21.1s9.4-21.1,21-21.1c7.6,0,14.2,4.1,17.9,10.1c2.3-0.9,4.9-1.4,7.5-1.4
	s5.2,0.5,7.5,1.4c3.7-6.1,10.3-10.1,17.9-10.1c11.6,0,21,9.4,21,21.1C-33.6,114.6-43,124-54.6,124z M-27.3,91.1
	c-1.4-3.6-10.1-9-11.4-9.2C-48.3,77.5-55,68-55.3,56.8c0-0.1,0-0.2,0-0.3c-0.1,0.2-0.1,0.3-0.2,0.5c-3.8,9.9-13,17.2-24,18.1
	c4.8-3.2,8.6-7.8,10.7-13.3c-3.3,3.6-7.1,6.7-11.2,9.3c-2.2,1.4-4.5,2.7-6.8,3.7c-4.5,2.1-9.4,3.7-14.5,4.5l0,0
	c-1.7,0.3-3.4,0.6-5.2,0.8c0.5-0.4,1-0.9,1.5-1.4c3.6-3.5,6.2-7.9,7.6-12.8c-3.2,5.9-8.4,10.6-14.6,13.1c0,0-0.1,0-0.2,0.1
	c-1.7,0.7-3.5,1.2-5.4,1.5c-3.6,1.4-6.8,3.5-9.5,6.1c-2,1.9-3.7,4.2-5.1,6.6c-1-4.1-1.5-8.5-1.5-12.9c0-11.9,3.6-22.9,9.8-31.9
	c7.7-11.3,19.4-19.4,32.9-22.4l0,0C-91,20-86.1,15-80,15s11,5,11,11.1c19.4,4.2,35,19.1,40.5,38.6c1.2,4,1.9,8.3,2.1,12.6v6.1
	C-26.5,86-26.8,88.6-27.3,91.1z"/>
<path id="XMLID_8_" class="st0" d="M-87.2,103c0,6.9-3.8,12.9-9.4,16c-0.8,0.5-1.7,0.8-2.5,1.2c-1.9,0.7-4,1.1-6.2,1.1
	c-10,0-18.2-8.2-18.2-18.3s8.1-18.3,18.2-18.3c6.5,0,12.1,3.4,15.4,8.5c0.5,0.8,0.9,1.6,1.3,2.5C-87.7,97.9-87.2,100.4-87.2,103z"/>
<path id="XMLID_5_" class="st0" d="M-36.1,103c0,6.9-3.8,12.9-9.4,16c-0.8,0.5-1.7,0.8-2.5,1.2c-1.9,0.7-4,1.1-6.2,1.1
	c-10,0-18.2-8.2-18.2-18.3s8.1-18.3,18.2-18.3c6.5,0,12.1,3.4,15.4,8.5c0.5,0.8,0.9,1.6,1.3,2.5C-36.7,97.9-36.1,100.4-36.1,103z"/>
</svg>
