<?xml version="1.0" encoding="utf-8"?>
<!-- Generator: Adobe Illustrator 19.0.0, SVG Export Plug-In . SVG Version: 6.00 Build 0)  -->
<svg version="1.1" id="Layer_1" xmlns="http://www.w3.org/2000/svg" xmlns:xlink="http://www.w3.org/1999/xlink" x="0px" y="0px"
	 viewBox="-159 2.8 149.3 150.2" style="enable-background:new -159 2.8 149.3 150.2;" xml:space="preserve">
<style type="text/css">
	.st0{fill:#5F4B8B;}
</style>
<g id="XMLID_9_">
	<path id="XMLID_13_" class="st0" d="M-84.3,2.8c-41.3,0-74.7,33.6-74.7,75.1s33.4,75.1,74.7,75.1s74.7-33.6,74.7-75.1
		C-9.7,36.4-43.1,2.8-84.3,2.8z M-58.9,123.9c-2.6,0-5.2-0.5-7.5-1.4c-0.9-0.3-1.7-0.7-2.6-1.2c-6.5-3.6-10.9-10.5-10.9-18.5
		c0-3,0.6-5.9,1.7-8.4c-1.9-0.7-4-1.1-6.2-1.1s-4.3,0.4-6.2,1.1c1.1,2.6,1.7,5.4,1.7,8.4c0,8-4.4,14.9-10.9,18.5
		c-0.8,0.5-1.7,0.8-2.6,1.2c-2.3,0.9-4.9,1.4-7.5,1.4c-11.6,0-21-9.4-21-21.1c0-11.6,9.4-21.1,21-21.1c7.6,0,14.2,4.1,17.9,10.1
		c2.3-0.9,4.9-1.4,7.5-1.4s5.2,0.5,7.5,1.4c3.7-6.1,10.3-10.1,17.9-10.1c11.6,0,21,9.4,21,21.1C-38,114.4-47.3,123.9-58.9,123.9z
		 M-31.6,90.9c-1.4-3.6-10.1-9-11.4-9.2c-9.6-4.4-16.3-13.9-16.6-25.1c0-0.1,0-0.2,0-0.3c-0.1,0.2-0.1,0.3-0.2,0.5
		c-3.8,9.9-13,17.2-24,18.1c4.8-3.2,8.6-7.8,10.7-13.3c-3.3,3.6-7.1,6.7-11.2,9.4c-2.2,1.4-4.5,2.6-6.8,3.7
		c-4.5,2.1-9.4,3.7-14.5,4.5c0,0,0,0-0.1,0c-1.7,0.3-3.4,0.6-5.2,0.8c0.5-0.4,1-0.9,1.5-1.4c3.6-3.5,6.2-7.9,7.6-12.8
		c-3.1,5.9-8.3,10.6-14.6,13.1c-0.1,0-0.1,0-0.2,0.1c-1.7,0.7-3.5,1.2-5.4,1.5c-3.6,1.4-6.8,3.5-9.5,6.1c-2,1.9-3.7,4.2-5.1,6.6
		c-1-4.1-1.5-8.5-1.5-12.9c0-11.9,3.6-22.9,9.8-31.9c7.7-11.2,19.3-19.4,32.8-22.3l0,0c0-6.1,4.9-11.1,11-11.1c6.1,0,11,5,11,11.1
		c19.4,4.2,35,19.2,40.5,38.6c1.2,4,1.9,8.2,2.1,12.6v6.1C-30.8,85.8-31.1,88.4-31.6,90.9z"/>
	<path id="XMLID_12_" class="st0" d="M-94.4,93c-3.2-5.1-8.9-8.5-15.4-8.5c-10,0-18.2,8.2-18.2,18.3s8.1,18.3,18.2,18.3
		c2.2,0,4.3-0.4,6.2-1.1c0.9-0.3,1.7-0.7,2.5-1.2c5.6-3.1,9.4-9.1,9.4-16c0-2.6-0.5-5-1.5-7.3C-93.5,94.6-93.9,93.8-94.4,93z"/>
	<path id="XMLID_10_" class="st0" d="M-58.9,84.5c-6.5,0-12.1,3.4-15.4,8.5c-0.5,0.8-0.9,1.6-1.3,2.5c-1,2.2-1.5,4.7-1.5,7.3
		c0,6.9,3.8,12.9,9.4,16c0.8,0.5,1.7,0.8,2.5,1.2c1.9,0.7,4,1.1,6.2,1.1c10,0,18.2-8.2,18.2-18.3C-40.7,92.7-48.9,84.5-58.9,84.5z"
		/>
</g>
</svg>
