<?xml version="1.0" encoding="utf-8"?>
<!-- Generator: Adobe Illustrator 19.0.0, SVG Export Plug-In . SVG Version: 6.00 Build 0)  -->
<svg version="1.1" id="Layer_1" xmlns="http://www.w3.org/2000/svg" xmlns:xlink="http://www.w3.org/1999/xlink" x="0px" y="0px"
	 viewBox="161 -229 792 612" style="enable-background:new 161 -229 792 612;" xml:space="preserve">
<style type="text/css">
	.st0{fill:#75027A;}
	.st1{fill:#FFFFFF;}
	.st2{fill:#E6E7E8;}
	.st3{fill:none;stroke:#000000;stroke-miterlimit:10;}
	.st4{fill:none;stroke:#000000;stroke-miterlimit:10;stroke-dasharray:1.861,1.861;}
	.st5{fill:none;stroke:#000000;stroke-miterlimit:10;stroke-dasharray:1.9744,1.9744;}
	.st6{fill:none;stroke:#000000;stroke-miterlimit:10;stroke-dasharray:1.9984,1.9984;}
	.st7{fill:none;stroke:#000000;stroke-miterlimit:10;stroke-dasharray:1.9761,1.9761;}
	.st8{fill:none;stroke:#000000;stroke-miterlimit:10;stroke-dasharray:2,2;}
	.st9{fill:none;stroke:#000000;stroke-miterlimit:10;stroke-dasharray:1.9754,1.9754;}
	.st10{fill:none;stroke:#000000;stroke-miterlimit:10;stroke-dasharray:2.0026,2.0026;}
	.st11{fill:none;stroke:#000000;stroke-miterlimit:10;stroke-dasharray:2;}
	.st12{fill:#0A2034;}
	.st13{font-family:'Georgia';}
	.st14{font-size:15.2476px;}
</style>
<g id="XMLID_3_">
	<path id="XMLID_4_" class="st0" d="M573.8-97.6V4.9h-4.4V-10c-2.7,5-6.7,9-11.9,12c-5.2,3-10.5,4.4-16,4.4c-9,0-16.7-3.2-23-9.5
		S509-17,509-25.8s3.2-16.4,9.5-22.7s14-9.5,23-9.5c5.6,0,11.1,1.5,16.3,4.5s9.1,7,11.5,12v-56h4.5V-97.6z M513.4-25.8
		c0,7.7,2.7,14.3,8.2,19.9c5.5,5.6,12,8.4,19.7,8.4c7.7,0,14.3-2.8,19.9-8.4c5.6-5.6,8.4-12.2,8.4-19.9s-2.8-14.3-8.4-20
		s-12.2-8.5-19.9-8.5c-7.7,0-14.2,2.8-19.7,8.5C516.2-40.1,513.4-33.5,513.4-25.8z"/>
	<path id="XMLID_7_" class="st0" d="M639.7-56.6h4.4V4.9h-4.4V-7.5c-4.6,9.3-12.6,13.9-23.8,13.9c-7.7,0-14.1-2.6-19.3-7.9
		c-5.2-5.3-7.8-11.7-7.8-19.3v-35.8h4.4v35.8c0,6.3,2.2,11.7,6.6,16.4c4.4,4.6,9.8,7,16.1,7c6.3,0,11.8-2.3,16.6-7
		c4.8-4.6,7.2-10.1,7.2-16.4L639.7-56.6L639.7-56.6z"/>
	<path id="XMLID_11_" class="st0" d="M682.4,2.3v3.8c-6.5,0-12-2.2-16.5-6.5c-4.6-4.3-6.8-9.9-6.8-16.6v-80.6h4.4V-17
		c0,5.6,1.8,10.2,5.5,13.8C672.7,0.5,677.1,2.3,682.4,2.3z"/>
	<path id="XMLID_17_" class="st0" d="M717.7,6.7h-1.2c-8.7,0-16.3-3.2-22.5-9.7c-6.3-6.5-9.4-14.1-9.4-22.7c0-8.7,3.2-16.2,9.6-22.5
		c6.4-6.3,14.2-9.5,23.5-9.5s17.2,3.5,23.8,10.5v7c-2.8-4.2-6.4-7.5-10.7-10s-8.9-3.7-13.6-3.7c-7.6,0-14.1,2.8-19.7,8.4
		c-5.6,5.6-8.4,12.3-8.4,20s2.8,14.4,8.4,20s12.2,8.4,19.7,8.4c4.7,0,9.3-1.2,13.6-3.7s7.9-5.8,10.7-10.1v7.1
		C734.9,3.2,727.1,6.7,717.7,6.7z"/>
	<path id="XMLID_19_" class="st0" d="M783.7,6.5h-1.2c-8.7,0-16.2-3.3-22.6-9.8c-6.4-6.5-9.6-14.1-9.6-22.7c0-8.7,3.2-16.1,9.6-22.5
		c6.4-6.3,14.3-9.5,23.6-9.5c9.4,0,17.4,3.7,24.2,11.2L764.8-4.4c5.9,4.7,11.6,7.1,17.1,7.1s10.4-1.3,14.7-3.8s7.9-5.9,10.7-10v7
		C800.7,3,792.9,6.5,783.7,6.5z M782.2-54.1c-7.2,0-13.7,2.8-19.3,8.4c-5.6,5.6-8.4,12-8.4,19.3s2.4,13.7,7.2,19.1l39.8-39.5
		C795.9-51.7,789.5-54.1,782.2-54.1z"/>
</g>
<ellipse id="XMLID_20_" class="st0" cx="418.6" cy="-45.5" rx="74.7" ry="75.1"/>
<path id="XMLID_16_" class="st1" d="M472.3-46.2v6.1c-0.1,2.6-0.5,5.2-0.9,7.7c-1.4-3.6-10.1-9-11.4-9.2
	c-9.6-4.4-16.3-13.9-16.6-25.1c0-0.1,0-0.2,0-0.3c-0.1,0.2-0.1,0.3-0.2,0.5c-3.8,9.9-13,17.2-24,18.1c4.8-3.2,8.6-7.8,10.7-13.3
	c-3.3,3.6-7.1,6.7-11.2,9.4c-2.2,1.4-4.5,2.6-6.8,3.7c-4.5,2.1-9.4,3.7-14.5,4.5c0,0,0,0-0.1,0c-1.7,0.3-3.4,0.6-5.2,0.8
	c0.5-0.4,1-0.9,1.5-1.4c3.6-3.5,6.2-7.9,7.6-12.8c-3.1,5.9-8.3,10.6-14.6,13.1c-0.1,0-0.1,0-0.2,0.1c-1.7,0.7-3.5,1.2-5.4,1.5
	c-3.6,1.4-6.8,3.5-9.5,6.1c-2,1.9-3.7,4.2-5.1,6.6c-1-4.1-1.5-8.5-1.5-12.9c0-11.9,3.6-22.9,9.8-31.9c7.7-11.2,19.3-19.4,32.8-22.3
	l0,0c0-6.1,4.9-11.1,11-11.1c6.1,0,11,5,11,11.1c19.4,4.2,35,19.2,40.5,38.6C471.3-54.8,472-50.6,472.3-46.2z"/>
<path id="XMLID_9_" class="st1" d="M444-41.6c-7.6,0-14.2,4.1-17.9,10.1c-2.3-0.9-4.9-1.4-7.5-1.4s-5.2,0.5-7.5,1.4
	c-3.7-6.1-10.3-10.1-17.9-10.1c-11.6,0-21,9.4-21,21.1c0,11.6,9.4,21.1,21,21.1c2.6,0,5.2-0.5,7.5-1.4c0.9-0.3,1.7-0.7,2.6-1.2
	c6.5-3.6,10.9-10.5,10.9-18.5c0-3-0.6-5.9-1.7-8.4c1.9-0.7,4-1.1,6.2-1.1s4.3,0.4,6.2,1.1c-1.1,2.6-1.7,5.4-1.7,8.4
	c0,8,4.4,14.9,10.9,18.5c0.8,0.5,1.7,0.8,2.6,1.2c2.3,0.9,4.9,1.4,7.5,1.4c11.6,0,21-9.4,21-21.1C465-32.2,455.6-41.6,444-41.6z
	 M401.9-4.5c-0.8,0.5-1.7,0.8-2.5,1.2c-1.9,0.7-4,1.1-6.2,1.1c-10,0-18.2-8.2-18.2-18.3s8.1-18.3,18.2-18.3c6.5,0,12.1,3.4,15.4,8.5
	c0.5,0.8,0.9,1.6,1.3,2.5c1,2.2,1.5,4.7,1.5,7.3C411.4-13.7,407.6-7.7,401.9-4.5z M444-2.3c-2.2,0-4.3-0.4-6.2-1.1
	c-0.9-0.3-1.7-0.7-2.5-1.2c-5.6-3.1-9.4-9.1-9.4-16c0-2.6,0.5-5,1.5-7.3c0.4-0.9,0.8-1.7,1.3-2.5c3.2-5.1,8.9-8.5,15.4-8.5
	c10,0,18.2,8.2,18.2,18.3S454.1-2.3,444-2.3z"/>
<g id="XMLID_25_">
	<rect id="XMLID_107_" x="493.3" y="-120.5" class="st2" width="15" height="150.1"/>
	<g id="XMLID_98_">
		<polyline id="XMLID_106_" class="st3" points="508.3,-119.5 508.3,-120.5 507.3,-120.5 		"/>
		<line id="XMLID_105_" class="st4" x1="505.4" y1="-120.5" x2="495.2" y2="-120.5"/>
		<polyline id="XMLID_104_" class="st3" points="494.3,-120.5 493.3,-120.5 493.3,-119.5 		"/>
		<line id="XMLID_103_" class="st5" x1="493.3" y1="-117.5" x2="493.3" y2="27.6"/>
		<polyline id="XMLID_102_" class="st3" points="493.3,28.6 493.3,29.6 494.3,29.6 		"/>
		<line id="XMLID_101_" class="st4" x1="496.1" y1="29.6" x2="506.4" y2="29.6"/>
		<polyline id="XMLID_100_" class="st3" points="507.3,29.6 508.3,29.6 508.3,28.6 		"/>
		<line id="XMLID_99_" class="st5" x1="508.3" y1="26.6" x2="508.3" y2="-118.5"/>
	</g>
</g>
<g id="XMLID_1_">
	<rect id="XMLID_96_" x="343.9" y="29.6" class="st2" width="463.6" height="75.1"/>
	<g id="XMLID_87_">
		<polyline id="XMLID_95_" class="st3" points="807.6,103.7 807.6,104.7 806.6,104.7 		"/>
		<line id="XMLID_94_" class="st6" x1="804.6" y1="104.7" x2="345.9" y2="104.7"/>
		<polyline id="XMLID_93_" class="st3" points="344.9,104.7 343.9,104.7 343.9,103.7 		"/>
		<line id="XMLID_92_" class="st7" x1="343.9" y1="101.8" x2="343.9" y2="31.6"/>
		<polyline id="XMLID_91_" class="st3" points="343.9,30.6 343.9,29.6 344.9,29.6 		"/>
		<line id="XMLID_90_" class="st6" x1="346.9" y1="29.6" x2="805.6" y2="29.6"/>
		<polyline id="XMLID_89_" class="st3" points="806.6,29.6 807.6,29.6 807.6,30.6 		"/>
		<line id="XMLID_88_" class="st7" x1="807.6" y1="32.6" x2="807.6" y2="102.8"/>
	</g>
</g>
<g id="XMLID_27_">
	<rect id="XMLID_84_" x="343.9" y="-195.7" class="st2" width="463.6" height="75.1"/>
	<g id="XMLID_75_">
		<polyline id="XMLID_83_" class="st3" points="807.6,-121.5 807.6,-120.5 806.6,-120.5 		"/>
		<line id="XMLID_82_" class="st6" x1="804.6" y1="-120.5" x2="345.9" y2="-120.5"/>
		<polyline id="XMLID_81_" class="st3" points="344.9,-120.5 343.9,-120.5 343.9,-121.5 		"/>
		<line id="XMLID_80_" class="st7" x1="343.9" y1="-123.5" x2="343.9" y2="-193.7"/>
		<polyline id="XMLID_79_" class="st3" points="343.9,-194.7 343.9,-195.7 344.9,-195.7 		"/>
		<line id="XMLID_78_" class="st6" x1="346.9" y1="-195.7" x2="805.6" y2="-195.7"/>
		<polyline id="XMLID_77_" class="st3" points="806.6,-195.7 807.6,-195.7 807.6,-194.7 		"/>
		<line id="XMLID_76_" class="st7" x1="807.6" y1="-192.7" x2="807.6" y2="-122.5"/>
	</g>
</g>
<g id="XMLID_2_">
	<g id="XMLID_66_">
		<polyline id="XMLID_74_" class="st3" points="881,28.6 881,29.6 880,29.6 		"/>
		<line id="XMLID_73_" class="st8" x1="878" y1="29.6" x2="271" y2="29.6"/>
		<polyline id="XMLID_72_" class="st3" points="270,29.6 269,29.6 269,28.6 		"/>
		<line id="XMLID_71_" class="st9" x1="269" y1="26.6" x2="269" y2="-118.5"/>
		<polyline id="XMLID_70_" class="st3" points="269,-119.5 269,-120.5 270,-120.5 		"/>
		<line id="XMLID_69_" class="st8" x1="272" y1="-120.5" x2="879" y2="-120.5"/>
		<polyline id="XMLID_68_" class="st3" points="880,-120.5 881,-120.5 881,-119.5 		"/>
		<line id="XMLID_67_" class="st9" x1="881" y1="-117.6" x2="881" y2="27.6"/>
	</g>
</g>
<g id="XMLID_23_">
	<rect id="XMLID_133_" x="807.6" y="-195.7" class="st2" width="75.1" height="300.4"/>
	<g id="XMLID_124_">
		<polyline id="XMLID_132_" class="st3" points="881.7,-195.7 882.7,-195.7 882.7,-194.7 		"/>
		<line id="XMLID_131_" class="st10" x1="882.7" y1="-192.6" x2="882.7" y2="102.7"/>
		<polyline id="XMLID_130_" class="st3" points="882.7,103.7 882.7,104.7 881.7,104.7 		"/>
		<line id="XMLID_129_" class="st7" x1="879.7" y1="104.7" x2="809.6" y2="104.7"/>
		<polyline id="XMLID_128_" class="st3" points="808.6,104.7 807.6,104.7 807.6,103.7 		"/>
		<line id="XMLID_127_" class="st10" x1="807.6" y1="101.7" x2="807.6" y2="-193.7"/>
		<polyline id="XMLID_126_" class="st3" points="807.6,-194.7 807.6,-195.7 808.6,-195.7 		"/>
		<line id="XMLID_125_" class="st7" x1="810.6" y1="-195.7" x2="880.7" y2="-195.7"/>
	</g>
</g>
<g id="XMLID_26_">
	<rect id="XMLID_53_" x="269" y="-195.6" class="st2" width="75.1" height="300.4"/>
	<g id="XMLID_44_">
		<polyline id="XMLID_52_" class="st3" points="343.1,-195.6 344.1,-195.6 344.1,-194.6 		"/>
		<line id="XMLID_51_" class="st10" x1="344.1" y1="-192.6" x2="344.1" y2="102.8"/>
		<polyline id="XMLID_50_" class="st3" points="344.1,103.8 344.1,104.8 343.1,104.8 		"/>
		<line id="XMLID_49_" class="st7" x1="341.1" y1="104.8" x2="270.9" y2="104.8"/>
		<polyline id="XMLID_48_" class="st3" points="270,104.8 269,104.8 269,103.8 		"/>
		<line id="XMLID_47_" class="st10" x1="269" y1="101.8" x2="269" y2="-193.6"/>
		<polyline id="XMLID_46_" class="st3" points="269,-194.6 269,-195.6 270,-195.6 		"/>
		<line id="XMLID_45_" class="st7" x1="271.9" y1="-195.6" x2="342.1" y2="-195.6"/>
	</g>
</g>
<line id="XMLID_30_" class="st11" x1="269" y1="104.8" x2="269" y2="138.1"/>
<line id="XMLID_33_" class="st11" x1="344.1" y1="138.1" x2="344.1" y2="104.8"/>
<line id="XMLID_34_" class="st11" x1="807.6" y1="138.1" x2="807.6" y2="104.7"/>
<line id="XMLID_35_" class="st11" x1="882.7" y1="138.1" x2="882.7" y2="104.7"/>
<line id="XMLID_37_" class="st11" x1="234.5" y1="104.8" x2="267.8" y2="104.8"/>
<line id="XMLID_36_" class="st11" x1="234.5" y1="29.6" x2="267.8" y2="29.6"/>
<line id="XMLID_39_" class="st11" x1="234.5" y1="-195.6" x2="267.8" y2="-195.6"/>
<line id="XMLID_55_" class="st11" x1="234.5" y1="-120.5" x2="267.8" y2="-120.5"/>
<line id="XMLID_57_" class="st11" x1="493.3" y1="29.6" x2="493.3" y2="138.1"/>
<line id="XMLID_58_" class="st11" x1="508.3" y1="29.6" x2="508.3" y2="138.1"/>
<polygon id="XMLID_31_" class="st12" points="668.5,334 672.8,326.5 677.1,334 "/>
<polygon id="XMLID_85_" class="st12" points="264.6,145.4 269,137.9 273.3,145.4 "/>
<polygon id="XMLID_29_" class="st12" points="339.7,145.4 344.1,137.9 348.4,145.4 "/>
<polygon id="XMLID_63_" class="st12" points="683.5,334 687.8,326.5 692.2,334 "/>
<polygon id="XMLID_163_" class="st12" points="488.9,145.4 493.3,137.9 497.6,145.4 "/>
<polygon id="XMLID_162_" class="st12" points="504,145.4 508.3,137.9 512.6,145.4 "/>
<polygon id="XMLID_64_" class="st12" points="803.2,145.4 807.6,137.9 811.9,145.4 "/>
<polygon id="XMLID_32_" class="st12" points="878.4,145.4 882.7,137.9 887,145.4 "/>
<polygon id="XMLID_28_" class="st12" points="227,34 234.5,29.6 227,25.3 "/>
<polygon id="XMLID_41_" class="st12" points="227,109.1 234.5,104.8 227,100.4 "/>
<polygon id="XMLID_56_" class="st12" points="227,-116.2 234.5,-120.5 227,-124.9 "/>
<polygon id="XMLID_40_" class="st12" points="230.7,-191.3 238.2,-195.7 230.7,-200 "/>
<g id="XMLID_38_">
	<path id="XMLID_54_" d="M235.8,62v4.6h-0.7c0-0.3-0.1-0.6-0.1-0.8c0-0.2-0.1-0.3-0.3-0.3c-0.1,0-0.2,0-0.3,0.1s-0.2,0.1-0.4,0.2
		c-0.3,0.2-0.6,0.4-1.1,0.7c-0.4,0.3-1,0.7-1.6,1.1c0.4,0.4,0.9,0.7,1.3,1s0.9,0.6,1.3,0.9c0.1,0,0.2,0.1,0.3,0.1s0.2,0.1,0.2,0.1
		c0.2,0,0.3-0.1,0.4-0.3c0.1-0.2,0.2-0.5,0.2-0.9h0.7v3.7h-0.6c-0.1-0.5-0.3-0.8-0.5-1.1c-0.2-0.3-0.4-0.5-0.7-0.8
		c-0.3-0.2-0.7-0.5-1.1-0.9c-0.4-0.4-1.1-0.9-2-1.5c-0.5,0.3-1.1,0.8-1.8,1.3c-0.7,0.5-1.3,0.9-1.8,1.2c-0.3,0.2-0.5,0.4-0.6,0.6
		c-0.2,0.2-0.2,0.6-0.2,1h-0.7v-4.4h0.7c0,0.2,0,0.4,0,0.6s0.1,0.3,0.2,0.3s0.1,0,0.2-0.1s0.2-0.1,0.2-0.2c0.2-0.1,0.6-0.4,1.1-0.7
		s1-0.7,1.5-1c-0.3-0.2-0.7-0.5-1.1-0.8s-0.9-0.6-1.3-0.9c0,0-0.1-0.1-0.2-0.1s-0.1,0-0.2,0s-0.3,0.1-0.3,0.4
		c-0.1,0.2-0.1,0.5-0.2,0.7h-0.7v-3.7h0.6c0.1,0.5,0.3,0.9,0.5,1.2c0.2,0.3,0.4,0.5,0.7,0.7c0.3,0.2,0.6,0.5,1,0.8
		c0.4,0.3,1,0.7,1.7,1.3c0.9-0.6,1.6-1.1,2.2-1.5c0.6-0.4,1.1-0.8,1.7-1.2c0.3-0.2,0.5-0.4,0.7-0.7c0.2-0.2,0.3-0.6,0.3-1h0.8V62z"
		/>
</g>
<g id="XMLID_114_">
	<path id="XMLID_115_" d="M235.8-163.3v4.6h-0.7c0-0.3-0.1-0.6-0.1-0.8c0-0.2-0.1-0.3-0.3-0.3c-0.1,0-0.2,0-0.3,0.1
		s-0.2,0.1-0.4,0.2c-0.3,0.2-0.6,0.4-1.1,0.7c-0.4,0.3-1,0.7-1.6,1.1c0.4,0.4,0.9,0.7,1.3,1c0.4,0.3,0.9,0.6,1.3,0.9
		c0.1,0,0.2,0.1,0.3,0.1s0.2,0.1,0.2,0.1c0.2,0,0.3-0.1,0.4-0.3c0.1-0.2,0.2-0.5,0.2-0.9h0.7v3.7h-0.6c-0.1-0.5-0.3-0.8-0.5-1.1
		s-0.4-0.5-0.7-0.8c-0.3-0.2-0.7-0.5-1.1-0.9c-0.4-0.4-1.1-0.9-2-1.5c-0.5,0.3-1.1,0.8-1.8,1.3c-0.7,0.5-1.3,0.9-1.8,1.2
		c-0.3,0.2-0.5,0.4-0.6,0.6c-0.2,0.2-0.2,0.6-0.2,1h-0.7v-4.4h0.7c0,0.2,0,0.4,0,0.6s0.1,0.3,0.2,0.3s0.1,0,0.2-0.1
		c0.1-0.1,0.2-0.1,0.2-0.2c0.2-0.1,0.6-0.4,1.1-0.7c0.5-0.3,1-0.7,1.5-1c-0.3-0.2-0.7-0.5-1.1-0.8c-0.4-0.3-0.9-0.6-1.3-0.9
		c0,0-0.1-0.1-0.2-0.1s-0.1,0-0.2,0s-0.3,0.1-0.3,0.4c-0.1,0.2-0.1,0.5-0.2,0.7h-0.7v-3.5h0.6c0.1,0.5,0.3,0.9,0.5,1.2
		c0.2,0.3,0.4,0.5,0.7,0.7c0.3,0.2,0.6,0.5,1,0.8c0.4,0.3,1,0.7,1.7,1.3c0.9-0.6,1.6-1.1,2.2-1.5c0.6-0.4,1.1-0.8,1.7-1.2
		c0.3-0.2,0.5-0.4,0.7-0.7c0.2-0.2,0.3-0.6,0.3-1L235.8-163.3L235.8-163.3z"/>
</g>
<g id="XMLID_60_">
	<path id="XMLID_61_" d="M850.3,146.7h-4.6V146c0.3,0,0.6-0.1,0.8-0.1s0.3-0.1,0.3-0.3c0-0.1,0-0.2-0.1-0.3s-0.1-0.2-0.2-0.4
		c-0.2-0.3-0.4-0.6-0.7-1.1c-0.3-0.4-0.7-1-1.1-1.6c-0.4,0.4-0.7,0.9-1,1.3s-0.6,0.9-0.9,1.3c0,0.1-0.1,0.2-0.1,0.3
		s-0.1,0.2-0.1,0.2c0,0.2,0.1,0.3,0.3,0.4s0.5,0.2,0.9,0.2v0.7H840V146c0.5-0.1,0.8-0.3,1.1-0.5s0.5-0.4,0.8-0.7
		c0.2-0.3,0.5-0.7,0.9-1.1s0.9-1.1,1.5-2c-0.3-0.5-0.8-1.1-1.3-1.8s-0.9-1.3-1.2-1.8c-0.2-0.3-0.4-0.5-0.6-0.6
		c-0.2-0.2-0.6-0.2-1-0.2v-0.7h4.4v0.7c-0.2,0-0.4,0-0.6,0c-0.2,0-0.3,0.1-0.3,0.2s0,0.1,0.1,0.2s0.1,0.2,0.2,0.2
		c0.1,0.2,0.4,0.6,0.7,1.1s0.7,1,1,1.5c0.2-0.3,0.5-0.7,0.8-1.1s0.6-0.9,0.9-1.3c0,0,0.1-0.1,0.1-0.2s0-0.1,0-0.2s-0.1-0.3-0.4-0.3
		c-0.2-0.1-0.5-0.1-0.7-0.2v-0.7h3.7v0.6c-0.5,0.1-0.9,0.3-1.2,0.5s-0.5,0.4-0.7,0.7c-0.2,0.3-0.5,0.6-0.8,1s-0.7,1-1.3,1.7
		c0.6,0.9,1.1,1.6,1.5,2.2s0.8,1.1,1.2,1.7c0.2,0.3,0.4,0.5,0.7,0.7c0.2,0.2,0.6,0.3,1,0.3v0.8H850.3z"/>
</g>
<g id="XMLID_108_">
	<path id="XMLID_109_" d="M311.7,162h-4.6v-0.7c0.3,0,0.6-0.1,0.8-0.1s0.3-0.1,0.3-0.3c0-0.1,0-0.2-0.1-0.3
		c-0.1-0.1-0.1-0.2-0.2-0.4c-0.2-0.3-0.4-0.6-0.7-1.1c-0.3-0.4-0.7-1-1.1-1.6c-0.4,0.4-0.7,0.9-1,1.3c-0.3,0.4-0.6,0.9-0.9,1.3
		c0,0.1-0.1,0.2-0.1,0.3s-0.1,0.2-0.1,0.2c0,0.2,0.1,0.3,0.3,0.4s0.5,0.2,0.9,0.2v0.7h-3.7v-0.6c0.5-0.1,0.8-0.3,1.1-0.5
		c0.3-0.2,0.5-0.4,0.8-0.7c0.2-0.3,0.5-0.7,0.9-1.1s0.9-1.1,1.5-2c-0.3-0.5-0.8-1.1-1.3-1.8s-0.9-1.3-1.2-1.8
		c-0.2-0.3-0.4-0.5-0.6-0.6c-0.2-0.2-0.6-0.2-1-0.2v-0.7h4.4v0.7c-0.2,0-0.4,0-0.6,0c-0.2,0-0.3,0.1-0.3,0.2s0,0.1,0.1,0.2
		c0.1,0.1,0.1,0.2,0.2,0.2c0.1,0.2,0.4,0.6,0.7,1.1c0.3,0.5,0.7,1,1,1.5c0.2-0.3,0.5-0.7,0.8-1.1s0.6-0.9,0.9-1.3
		c0,0,0.1-0.1,0.1-0.2s0-0.1,0-0.2s-0.1-0.3-0.4-0.3c-0.2-0.1-0.5-0.1-0.7-0.2v-0.7h3.7v0.6c-0.5,0.1-0.9,0.3-1.2,0.5
		c-0.3,0.2-0.5,0.4-0.7,0.7c-0.2,0.3-0.5,0.6-0.8,1c-0.3,0.4-0.7,1-1.3,1.7c0.6,0.9,1.1,1.6,1.5,2.2s0.8,1.1,1.2,1.7
		c0.2,0.3,0.4,0.5,0.7,0.7c0.2,0.2,0.6,0.3,1,0.3v0.8H311.7z"/>
</g>
<text id="XMLID_24_" transform="matrix(1 0 0 1 677.1357 350.6171)" class="st13 st14">Y</text>
<text id="XMLID_161_" transform="matrix(1 0 0 1 497.6053 161.9998)" class="st13 st14">Y</text>
<ellipse id="XMLID_120_" class="st0" cx="340.9" cy="268" rx="74.7" ry="75.1"/>
<path id="XMLID_119_" class="st1" d="M394.5,267.3v6.1c-0.1,2.6-0.5,5.2-0.9,7.7c-1.4-3.6-10.1-9-11.4-9.2
	c-9.6-4.4-16.3-13.9-16.6-25.1c0-0.1,0-0.2,0-0.3c-0.1,0.2-0.1,0.3-0.2,0.5c-3.8,9.9-13,17.2-24,18.1c4.8-3.2,8.6-7.8,10.7-13.3
	c-3.3,3.6-7.1,6.7-11.2,9.4c-2.2,1.4-4.5,2.6-6.8,3.7c-4.5,2.1-9.4,3.7-14.5,4.5c0,0,0,0-0.1,0c-1.7,0.3-3.4,0.6-5.2,0.8
	c0.5-0.4,1-0.9,1.5-1.4c3.6-3.5,6.2-7.9,7.6-12.8c-3.1,5.9-8.3,10.6-14.6,13.1c-0.1,0-0.1,0-0.2,0.1c-1.7,0.7-3.5,1.2-5.4,1.5
	c-3.6,1.4-6.8,3.5-9.5,6.1c-2,1.9-3.7,4.2-5.1,6.6c-1-4.1-1.5-8.5-1.5-12.9c0-11.9,3.6-22.9,9.8-31.9c7.7-11.2,19.3-19.4,32.8-22.3
	l0,0c0-6.1,4.9-11.1,11-11.1s11,5,11,11.1c19.4,4.2,35,19.2,40.5,38.6C393.6,258.7,394.3,262.9,394.5,267.3z"/>
<path id="XMLID_111_" class="st1" d="M366.3,271.9c-7.6,0-14.2,4.1-17.9,10.1c-2.3-0.9-4.9-1.4-7.5-1.4c-2.6,0-5.2,0.5-7.5,1.4
	c-3.7-6.1-10.3-10.1-17.9-10.1c-11.6,0-21,9.4-21,21.1c0,11.6,9.4,21.1,21,21.1c2.6,0,5.2-0.5,7.5-1.4c0.9-0.3,1.7-0.7,2.6-1.2
	c6.5-3.6,10.9-10.5,10.9-18.5c0-3-0.6-5.9-1.7-8.4c1.9-0.7,4-1.1,6.2-1.1c2.2,0,4.3,0.4,6.2,1.1c-1.1,2.6-1.7,5.4-1.7,8.4
	c0,8,4.4,14.9,10.9,18.5c0.8,0.5,1.7,0.8,2.6,1.2c2.3,0.9,4.9,1.4,7.5,1.4c11.6,0,21-9.4,21-21.1
	C387.2,281.3,377.8,271.9,366.3,271.9z M324.2,309c-0.8,0.5-1.7,0.8-2.5,1.2c-1.9,0.7-4,1.1-6.2,1.1c-10,0-18.2-8.2-18.2-18.3
	c0-10.1,8.1-18.3,18.2-18.3c6.5,0,12.1,3.4,15.4,8.5c0.5,0.8,0.9,1.6,1.3,2.5c1,2.2,1.5,4.7,1.5,7.3
	C333.6,299.8,329.8,305.8,324.2,309z M366.3,311.2c-2.2,0-4.3-0.4-6.2-1.1c-0.9-0.3-1.7-0.7-2.5-1.2c-5.6-3.1-9.4-9.1-9.4-16
	c0-2.6,0.5-5,1.5-7.3c0.4-0.9,0.8-1.7,1.3-2.5c3.2-5.1,8.9-8.5,15.4-8.5c10,0,18.2,8.2,18.2,18.3C384.4,303,376.3,311.2,366.3,311.2
	z"/>
<line id="XMLID_121_" class="st3" x1="249.3" y1="193" x2="427.5" y2="193"/>
<line id="XMLID_135_" class="st3" x1="249.3" y1="268" x2="427.5" y2="268"/>
<line id="XMLID_122_" class="st3" x1="249.3" y1="343.1" x2="427.5" y2="343.1"/>
<line id="XMLID_136_" class="st11" x1="458.6" y1="193" x2="425.3" y2="193"/>
<polygon id="XMLID_134_" class="st12" points="466.1,197.3 458.6,193 466.1,188.6 "/>
<line id="XMLID_138_" class="st11" x1="458.6" y1="268" x2="425.3" y2="268"/>
<polygon id="XMLID_137_" class="st12" points="466.1,272.4 458.6,268 466.1,263.7 "/>
<g id="XMLID_139_">
	<path id="XMLID_140_" d="M476.8,238.9h-4.6v-0.7c0.3,0,0.6-0.1,0.8-0.1c0.2,0,0.3-0.1,0.3-0.3c0-0.1,0-0.2-0.1-0.3
		s-0.1-0.2-0.2-0.4c-0.2-0.3-0.4-0.6-0.7-1.1c-0.3-0.4-0.7-1-1.1-1.6c-0.4,0.4-0.7,0.9-1,1.3s-0.6,0.9-0.9,1.3
		c0,0.1-0.1,0.2-0.1,0.3s-0.1,0.2-0.1,0.2c0,0.2,0.1,0.3,0.3,0.4c0.2,0.1,0.5,0.2,0.9,0.2v0.7h-3.7v-0.6c0.5-0.1,0.8-0.3,1.1-0.5
		c0.3-0.2,0.5-0.4,0.8-0.7c0.2-0.3,0.5-0.7,0.9-1.1s0.9-1.1,1.5-2c-0.3-0.5-0.8-1.1-1.3-1.8s-0.9-1.3-1.2-1.8
		c-0.2-0.3-0.4-0.5-0.6-0.6c-0.2-0.2-0.6-0.2-1-0.2v-0.7h4.4v0.7c-0.2,0-0.4,0-0.6,0s-0.3,0.1-0.3,0.2s0,0.1,0.1,0.2
		s0.1,0.2,0.2,0.2c0.1,0.2,0.4,0.6,0.7,1.1s0.7,1,1,1.5c0.2-0.3,0.5-0.7,0.8-1.1s0.6-0.9,0.9-1.3c0,0,0.1-0.1,0.1-0.2s0-0.1,0-0.2
		s-0.1-0.3-0.4-0.3c-0.2-0.1-0.5-0.1-0.7-0.2v-0.7h3.7v0.6c-0.5,0.1-0.9,0.3-1.2,0.5c-0.3,0.2-0.5,0.4-0.7,0.7
		c-0.2,0.3-0.5,0.6-0.8,1s-0.7,1-1.3,1.7c0.6,0.9,1.1,1.6,1.5,2.2s0.8,1.1,1.2,1.7c0.2,0.3,0.4,0.5,0.7,0.7c0.2,0.2,0.6,0.3,1,0.3
		v0.8H476.8z"/>
</g>
<g id="XMLID_143_">
	<path id="XMLID_153_" class="st0" d="M672.6,186.8v102.5h-4.4v-14.9c-2.7,5-6.7,9-11.9,12c-5.2,3-10.5,4.4-16,4.4
		c-9,0-16.7-3.2-23-9.5c-6.3-6.3-9.5-13.9-9.5-22.7c0-8.8,3.2-16.4,9.5-22.7c6.3-6.3,14-9.5,23-9.5c5.6,0,11.1,1.5,16.3,4.5
		c5.2,3,9.1,7,11.5,12v-56h4.5V186.8z M612.2,258.6c0,7.7,2.7,14.3,8.2,19.9c5.5,5.6,12,8.4,19.7,8.4s14.3-2.8,19.9-8.4
		c5.6-5.6,8.4-12.2,8.4-19.9c0-7.7-2.8-14.3-8.4-20c-5.6-5.7-12.2-8.5-19.9-8.5s-14.2,2.8-19.7,8.5
		C614.9,244.2,612.2,250.9,612.2,258.6z"/>
	<path id="XMLID_151_" class="st0" d="M738.4,227.8h4.4v61.5h-4.4v-12.4c-4.6,9.3-12.6,13.9-23.8,13.9c-7.7,0-14.1-2.6-19.3-7.9
		c-5.2-5.3-7.8-11.7-7.8-19.3v-35.8h4.4v35.8c0,6.3,2.2,11.7,6.6,16.4c4.4,4.6,9.8,7,16.1,7s11.8-2.3,16.6-7
		c4.8-4.6,7.2-10.1,7.2-16.4V227.8z"/>
	<path id="XMLID_149_" class="st0" d="M781.2,286.7v3.8c-6.5,0-12-2.2-16.5-6.5c-4.6-4.3-6.8-9.9-6.8-16.6v-80.6h4.4v80.6
		c0,5.6,1.8,10.2,5.5,13.8C771.4,284.8,775.9,286.7,781.2,286.7z"/>
	<path id="XMLID_147_" class="st0" d="M816.4,291h-1.2c-8.7,0-16.3-3.2-22.5-9.7c-6.3-6.5-9.4-14.1-9.4-22.7
		c0-8.7,3.2-16.2,9.6-22.5c6.4-6.3,14.2-9.5,23.5-9.5s17.2,3.5,23.8,10.5v7c-2.8-4.2-6.4-7.5-10.7-10s-8.9-3.7-13.6-3.7
		c-7.6,0-14.1,2.8-19.7,8.4c-5.6,5.6-8.4,12.3-8.4,20s2.8,14.4,8.4,20s12.2,8.4,19.7,8.4c4.7,0,9.3-1.2,13.6-3.7s7.9-5.8,10.7-10.1
		v7.1C833.7,287.5,825.8,291,816.4,291z"/>
	<path id="XMLID_144_" class="st0" d="M882.4,290.9h-1.2c-8.7,0-16.2-3.3-22.6-9.8c-6.4-6.5-9.6-14.1-9.6-22.7
		c0-8.7,3.2-16.1,9.6-22.5c6.4-6.3,14.3-9.5,23.6-9.5c9.4,0,17.4,3.7,24.2,11.2l-43,42.4c5.9,4.7,11.6,7.1,17.1,7.1
		s10.4-1.3,14.7-3.8s7.9-5.9,10.7-10v7C899.5,287.3,891.6,290.9,882.4,290.9z M881,230.2c-7.2,0-13.7,2.8-19.3,8.4s-8.4,12-8.4,19.3
		s2.4,13.7,7.2,19.1l39.8-39.5C894.7,232.7,888.2,230.2,881,230.2z"/>
</g>
<line id="XMLID_156_" class="st11" x1="672.8" y1="328.4" x2="672.8" y2="298.2"/>
<line id="XMLID_158_" class="st11" x1="687.8" y1="328.4" x2="687.8" y2="268"/>
<line id="XMLID_157_" class="st3" x1="672.8" y1="298.2" x2="672.8" y2="166.9"/>
<line id="XMLID_159_" class="st3" x1="687.8" y1="298.2" x2="687.8" y2="166.9"/>
</svg>
