<?xml version="1.0" encoding="utf-8"?>
<!-- Generator: Adobe Illustrator 19.0.0, SVG Export Plug-In . SVG Version: 6.00 Build 0)  -->
<svg version="1.1" id="Layer_1" xmlns="http://www.w3.org/2000/svg" xmlns:xlink="http://www.w3.org/1999/xlink" x="0px" y="0px"
	 viewBox="161 -229 792 612" style="enable-background:new 161 -229 792 612;" xml:space="preserve">
<style type="text/css">
	.st0{fill:#75027A;}
	.st1{fill:#FFFFFF;}
	.st2{fill:#FFFAFF;}
	.st3{fill:none;stroke:#000000;stroke-miterlimit:10;stroke-dasharray:2;}
	.st4{fill:#0A2034;}
	.st5{fill:none;stroke:#000000;stroke-miterlimit:10;}
	.st6{font-family:'Lato-Regular';}
	.st7{font-size:27.2023px;}
	.st8{font-family:'Lato-Italic';}
</style>
<g id="XMLID_3_">
	<path id="XMLID_4_" class="st0" d="M552.1,9.8v132.7h-5.7v-19.3c-3.5,6.5-8.7,11.7-15.4,15.5c-6.7,3.8-13.6,5.8-20.7,5.8
		c-11.7,0-21.6-4.1-29.8-12.3c-8.2-8.2-12.3-18-12.3-29.5c0-11.4,4.1-21.3,12.3-29.5c8.2-8.2,18.1-12.3,29.8-12.3
		c7.3,0,14.4,1.9,21.1,5.8c6.8,3.9,11.8,9.1,15,15.6V9.7L552.1,9.8L552.1,9.8z M473.9,102.8c0,10,3.5,18.6,10.6,25.8
		c7.1,7.3,15.6,10.9,25.6,10.9c10,0,18.6-3.6,25.8-10.9c7.3-7.3,10.9-15.8,10.9-25.7c0-9.9-3.6-18.6-10.9-25.9
		c-7.3-7.4-15.8-11.1-25.8-11.1c-9.9,0-18.4,3.7-25.6,11C477.4,84.2,473.9,92.8,473.9,102.8z"/>
	<path id="XMLID_7_" class="st0" d="M637.4,62.9h5.7v79.6h-5.7v-16.1c-6,12-16.3,18.1-30.8,18.1c-9.9,0-18.2-3.4-25-10.3
		c-6.7-6.8-10.1-15.2-10.1-25V62.8h5.7v46.4c0,8.1,2.9,15.2,8.6,21.2c5.7,6,12.7,9,20.8,9c8.1,0,15.3-3,21.5-9
		c6.2-6,9.3-13.1,9.3-21.2V62.9z"/>
	<path id="XMLID_11_" class="st0" d="M692.8,139.1v5c-8.4,0-15.5-2.8-21.4-8.4c-5.9-5.6-8.8-12.8-8.8-21.5V9.8h5.7v104.4
		c0,7.2,2.4,13.2,7.2,17.9C680.1,136.8,686,139.1,692.8,139.1z"/>
	<path id="XMLID_17_" class="st0" d="M738.5,144.8h-1.6c-11.3,0-21.1-4.2-29.2-12.6c-8.1-8.4-12.2-18.2-12.2-29.5s4.1-21,12.4-29.2
		c8.3-8.2,18.4-12.3,30.4-12.3s22.3,4.5,30.8,13.6v9c-3.7-5.4-8.3-9.7-13.9-12.9c-5.6-3.2-11.5-4.8-17.6-4.8
		c-9.8,0-18.3,3.6-25.6,10.9s-10.9,15.9-10.9,25.9s3.6,18.7,10.9,25.9s15.8,10.9,25.6,10.9c6.1,0,12-1.6,17.6-4.8
		c5.6-3.2,10.2-7.5,13.9-13.1v9.2C760.8,140.3,750.6,144.8,738.5,144.8z"/>
	<path id="XMLID_19_" class="st0" d="M823.9,144.6h-1.6c-11.2,0-21-4.2-29.3-12.7c-8.3-8.4-12.5-18.3-12.5-29.5s4.1-20.9,12.4-29.1
		c8.3-8.2,18.5-12.3,30.6-12.3c12.2,0,22.6,4.8,31.3,14.5l-55.6,54.9c7.7,6.1,15,9.2,22.1,9.2s13.4-1.6,19-4.9
		c5.6-3.2,10.2-7.6,13.9-13v9C846,140,835.9,144.6,823.9,144.6z M822.1,66.1c-9.4,0-17.7,3.6-25,10.9s-10.9,15.6-10.9,25
		s3.1,17.7,9.4,24.8l51.5-51.1C839.8,69.2,831.5,66.1,822.1,66.1z"/>
</g>
<ellipse id="XMLID_20_" class="st0" cx="351.1" cy="77.3" rx="96.7" ry="97.3"/>
<path id="XMLID_16_" class="st1" d="M420.5,76.3v7.9c-0.2,3.4-0.6,6.7-1.2,10c-1.8-4.7-13.1-11.7-14.7-11.9
	c-12.4-5.7-21.2-18.1-21.5-32.6c0-0.1,0-0.2,0-0.3c-0.1,0.2-0.1,0.4-0.2,0.6c-5,12.9-16.9,22.2-31.1,23.4
	c6.2-4.2,11.1-10.2,13.9-17.3c-4.3,4.6-9.1,8.7-14.5,12.1c-2.8,1.8-5.8,3.4-8.8,4.8c-5.9,2.7-12.2,4.8-18.8,5.8c0,0,0,0-0.1,0
	c-2.2,0.3-4.4,0.8-6.7,1c0.7-0.6,1.3-1.1,1.9-1.8c4.6-4.5,8-10.2,9.8-16.6c-4.1,7.7-10.8,13.7-18.9,16.9c-0.1,0-0.1,0.1-0.2,0.1
	c-2.2,0.9-4.6,1.5-7,1.9c-4.6,1.8-8.8,4.5-12.3,7.9c-2.6,2.5-4.8,5.4-6.5,8.6c-1.2-5.4-1.9-11-1.9-16.7c0-15.4,4.7-29.6,12.7-41.3
	c10-14.6,25-25.1,42.5-28.9l0,0c0-7.9,6.4-14.4,14.3-14.4s14.3,6.4,14.3,14.4c25.2,5.4,45.3,24.8,52.5,50
	C419.3,65.2,420.3,70.7,420.5,76.3z"/>
<path id="XMLID_9_" class="st2" d="M384,82.2c-9.8,0-18.4,5.3-23.2,13.1c-3-1.2-6.3-1.8-9.7-1.8s-6.7,0.6-9.7,1.8
	c-4.8-7.9-13.4-13.1-23.2-13.1c-15,0-27.1,12.2-27.1,27.3c0,15.1,12.2,27.3,27.1,27.3c3.4,0,6.7-0.6,9.7-1.8c1.1-0.4,2.2-1,3.3-1.5
	c8.4-4.6,14.1-13.6,14.1-24c0-3.9-0.8-7.6-2.3-10.9c2.5-0.9,5.2-1.4,8-1.4c2.8,0,5.5,0.5,8,1.4c-1.5,3.3-2.3,7-2.3,10.9
	c0,10.3,5.7,19.3,14.1,24c1.1,0.6,2.2,1.1,3.3,1.5c3,1.2,6.3,1.8,9.7,1.8c15,0,27.1-12.2,27.1-27.3C411.1,94.5,399,82.2,384,82.2z
	 M329.5,130.3c-1,0.6-2.1,1.1-3.3,1.5c-2.5,0.9-5.2,1.4-8,1.4c-13,0-23.5-10.6-23.5-23.7s10.5-23.7,23.5-23.7
	c8.4,0,15.7,4.4,19.9,11c0.6,1,1.2,2.1,1.7,3.2c1.2,2.9,1.9,6.1,1.9,9.4C341.7,118.5,336.7,126.3,329.5,130.3z M384,133.2
	c-2.8,0-5.5-0.5-8-1.4c-1.1-0.4-2.2-0.9-3.3-1.5c-7.3-4-12.2-11.8-12.2-20.7c0-3.3,0.7-6.5,1.9-9.4c0.5-1.1,1-2.2,1.7-3.2
	c4.2-6.6,11.5-11,19.9-11c13,0,23.5,10.6,23.5,23.7S397,133.2,384,133.2z"/>
<line id="XMLID_1_" class="st3" x1="254.3" y1="207.8" x2="854.9" y2="207.8"/>
<line id="XMLID_2_" class="st3" x1="254.3" y1="-53.2" x2="447.8" y2="-53.2"/>
<line id="XMLID_23_" class="st3" x1="468.2" y1="-53.2" x2="854.9" y2="-53.2"/>
<line id="XMLID_30_" class="st3" x1="254.3" y1="207.8" x2="254.3" y2="250.9"/>
<polygon id="XMLID_85_" class="st4" points="248.7,260.4 254.3,250.7 259.9,260.4 "/>
<line id="XMLID_26_" class="st3" x1="854.9" y1="207.8" x2="854.9" y2="250.9"/>
<polygon id="XMLID_25_" class="st4" points="849.3,260.4 854.9,250.7 860.5,260.4 "/>
<line id="XMLID_27_" class="st3" x1="254.3" y1="-53.8" x2="254.3" y2="-96.9"/>
<polygon id="XMLID_24_" class="st4" points="248.7,-106.4 254.3,-96.7 259.9,-106.4 "/>
<line id="XMLID_31_" class="st3" x1="447.8" y1="-53.8" x2="447.8" y2="-96.9"/>
<polygon id="XMLID_29_" class="st4" points="442.2,-106.4 447.8,-96.7 453.4,-106.4 "/>
<line id="XMLID_33_" class="st3" x1="468.2" y1="-53.8" x2="468.2" y2="-96.9"/>
<polygon id="XMLID_32_" class="st4" points="462.6,-106.4 468.2,-96.7 473.8,-106.4 "/>
<line id="XMLID_35_" class="st3" x1="854.9" y1="-53.2" x2="854.9" y2="-96.3"/>
<polygon id="XMLID_34_" class="st4" points="849.3,-106.4 854.9,-96.7 860.5,-106.4 "/>
<line id="XMLID_121_" class="st5" x1="254.3" y1="-53.8" x2="447.8" y2="-53.8"/>
<line id="XMLID_28_" class="st5" x1="468.2" y1="-53.8" x2="854.9" y2="-53.8"/>
<line id="XMLID_36_" class="st5" x1="254.4" y1="207.8" x2="854.9" y2="207.8"/>
<text id="XMLID_37_" transform="matrix(1 0 0 1 267.1773 243.8462)" class="st6 st7">Logo</text>
<text id="XMLID_40_" transform="matrix(1 0 0 1 267.1773 -67.0375)" class="st6 st7">Icone</text>
<text id="XMLID_38_" transform="matrix(1 0 0 1 483.0679 -67.0375)" class="st8 st7">Wordmark</text>
</svg>
