<?xml version="1.0" encoding="utf-8"?>
<!-- Generator: Adobe Illustrator 19.0.0, SVG Export Plug-In . SVG Version: 6.00 Build 0)  -->
<svg version="1.1" id="Camada_1" xmlns="http://www.w3.org/2000/svg" xmlns:xlink="http://www.w3.org/1999/xlink" x="0px" y="0px"
	 viewBox="0 0 1000 310" style="enable-background:new 0 0 1000 310;" xml:space="preserve">
<style type="text/css">
	.st0{fill:#240032;}
</style>
<g id="XMLID_2_">
	<path id="XMLID_3_" class="st0" d="M501.6,53.5v201.9H493v-29.3c-5.4,9.9-13.2,17.7-23.4,23.6c-10.2,5.8-20.7,8.7-31.5,8.7
		c-17.8,0-32.9-6.2-45.4-18.7c-12.5-12.5-18.7-27.4-18.7-44.8c0-17.4,6.2-32.3,18.7-44.8c12.5-12.5,27.6-18.7,45.4-18.7
		c11.1,0,21.8,3,32.2,8.9c10.3,5.9,17.9,13.8,22.7,23.7V53.5H501.6z M382.6,195c0,15.2,5.4,28.3,16.2,39.3
		c10.8,11,23.7,16.6,38.9,16.6c15.2,0,28.3-5.5,39.3-16.6s16.6-24.1,16.6-39.2c0-15.1-5.5-28.2-16.6-39.4
		c-11-11.2-24.1-16.8-39.2-16.8c-15.1,0-28,5.6-38.9,16.7C388.1,166.7,382.6,179.8,382.6,195z"/>
	<path id="XMLID_6_" class="st0" d="M631.4,134.3h8.6v121.1h-8.6v-24.5c-9.2,18.3-24.8,27.5-46.8,27.5c-15.1,0-27.7-5.2-38-15.6
		c-10.2-10.4-15.3-23.1-15.3-38v-70.5h8.6v70.5c0,12.4,4.3,23.2,13.1,32.3c8.7,9.2,19.2,13.7,31.6,13.7c12.4,0,23.3-4.6,32.7-13.7
		c9.4-9.2,14.1-19.9,14.1-32.3V134.3z"/>
	<path id="XMLID_8_" class="st0" d="M715.6,250.3v7.5c-12.7,0-23.6-4.3-32.6-12.8c-9-8.5-13.5-19.4-13.5-32.7V53.5h8.6v158.8
		c0,10.9,3.6,20,10.9,27.2C696.4,246.7,705.2,250.3,715.6,250.3z"/>
	<path id="XMLID_10_" class="st0" d="M785.1,258.9h-2.4c-17.2,0-32-6.4-44.4-19.1c-12.4-12.7-18.6-27.7-18.6-44.8
		c0-17.1,6.3-31.9,18.8-44.4c12.6-12.5,28-18.7,46.3-18.7c18.3,0,33.9,6.9,46.8,20.7v13.7c-5.6-8.3-12.6-14.8-21.1-19.7
		c-8.5-4.8-17.5-7.3-26.8-7.3c-14.9,0-27.9,5.5-38.9,16.6c-11,11-16.6,24.2-16.6,39.4c0,15.3,5.5,28.4,16.6,39.4s24,16.6,38.9,16.6
		c9.3,0,18.3-2.4,26.8-7.3c8.5-4.8,15.6-11.5,21.1-19.9v14C819.1,252,803.6,258.9,785.1,258.9z"/>
	<path id="XMLID_13_" class="st0" d="M915.1,258.7h-2.4c-17.1,0-31.9-6.4-44.6-19.2c-12.7-12.8-19-27.8-19-44.8
		c0-17,6.3-31.8,18.8-44.3c12.6-12.5,28.1-18.7,46.6-18.7c18.5,0,34.4,7.4,47.6,22.1l-84.5,83.5c11.7,9.3,22.9,14,33.6,14
		c10.8,0,20.4-2.5,28.9-7.4c8.5-4.9,15.6-11.5,21.1-19.8v13.7C948.7,251.7,933.2,258.7,915.1,258.7z M912.3,139.1
		c-14.3,0-26.9,5.5-38,16.6c-11,11-16.6,23.7-16.6,38.1c0,14.4,4.8,26.9,14.3,37.7l78.3-77.8C939.2,144,926.5,139.1,912.3,139.1z"/>
</g>
<path id="XMLID_42_" class="st0" d="M266.6,180.7c-18.5,0-34.8,9.8-43.7,24.6c-5.7-2.2-11.9-3.4-18.3-3.4s-12.6,1.2-18.3,3.4
	c-9-14.8-25.2-24.6-43.7-24.6c-28.2,0-51.2,22.9-51.2,51.2c0,28.2,22.9,51.2,51.2,51.2c6.4,0,12.6-1.2,18.3-3.4
	c2.2-0.8,4.2-1.8,6.2-2.9c15.9-8.7,26.6-25.5,26.6-44.9c0-7.3-1.5-14.2-4.3-20.5c4.7-1.7,9.8-2.7,15.2-2.7s10.4,0.9,15.2,2.7
	c-2.7,6.3-4.3,13.2-4.3,20.5c0,19.3,10.7,36.2,26.6,44.9c2,1.1,4.1,2.1,6.2,2.9c5.7,2.2,11.9,3.4,18.3,3.4
	c28.2,0,51.2-22.9,51.2-51.2C317.8,203.6,294.9,180.7,266.6,180.7z M163.9,270.7c-2,1.1-4,2-6.2,2.8c-4.7,1.7-9.8,2.7-15.2,2.7
	c-24.5,0-44.3-19.9-44.3-44.3s19.9-44.3,44.3-44.3c15.8,0,29.7,8.3,37.5,20.7c1.2,1.9,2.3,3.9,3.2,6c2.4,5.4,3.7,11.4,3.7,17.7
	C186.9,248.6,177.6,263.2,163.9,270.7z M266.6,276.2c-5.3,0-10.4-0.9-15.2-2.7c-2.2-0.8-4.2-1.7-6.2-2.8c-13.7-7.5-23-22.1-23-38.9
	c0-6.3,1.3-12.2,3.7-17.7c0.9-2.1,2-4.1,3.2-6c7.8-12.4,21.7-20.7,37.5-20.7c24.5,0,44.3,19.9,44.3,44.3S291.1,276.2,266.6,276.2z"
	/>
<path id="XMLID_11_" class="st0" d="M352.6,198.8c-4.6-3-8.8-6.5-12.5-10.5c-0.2,4.9-0.6,9.7-1.4,14.5c-0.8-1.8-1.6-3.5-2.7-5.1
	c-3.5-5.4-8.4-9.8-14.3-12.6c-3.1-1.5-6.5-2.5-10-3c-25.3-9.8-43.5-34-44.2-62.6c0-0.2,0-0.4,0-0.6c-0.1,0.4-0.3,0.8-0.5,1.2
	c-9.3,24.1-31.8,41.7-58.7,43.9c11.7-7.8,21-19.1,26.2-32.4c-8.1,8.7-17.2,16.3-27.3,22.7c-5.3,3.4-10.9,6.4-16.7,9
	c-11.1,5.1-23,8.9-35.5,10.9c0,0-0.1,0-0.1,0c-4.1,0.6-8.3,1.5-12.6,1.9c1.3-1,2.5-2.1,3.7-3.3c8.7-8.4,15.2-19.1,18.5-31.1
	c-7.7,14.4-20.3,25.7-35.6,31.7c-0.1,0-0.3,0.1-0.4,0.1c-4.2,1.6-8.6,2.9-13.2,3.6c-8.7,3.4-16.6,8.5-23.2,14.9
	c-7,6.8-12.6,15-16.2,24.3c-3-9.5-4.9-19.5-5.7-29.8c0,0,0,0,0,0c-0.2-2.6-0.3-5.2-0.3-7.9c0,0,0,0-0.1,0.1
	c-10.2,8.9-21.9,16.2-34.5,21.8c11-7,20.9-15.6,29.4-25.3c1.9-2.2,3.7-4.4,5.5-6.7c0.3-2.6,0.6-5.2,1-7.8c0-0.1,0-0.2,0-0.2
	c0.4-2.3,0.8-4.5,1.3-6.8c0,0,0-0.1,0-0.1c11.1-50.7,50.6-90.8,101-102.7c0-0.3,0-0.5,0-0.8c0-17.3,14-31.3,31.3-31.3
	s31.3,14,31.3,31.3c0,0.3,0,0.5,0,0.8c56.9,13.4,99.9,62.7,103.8,122.7c0.1,0.5,0.3,0.9,0.4,1.3
	C342.7,183.7,347.1,191.8,352.6,198.8z"/>
</svg>
