<?xml version="1.0" encoding="utf-8"?>
<!-- Generator: Adobe Illustrator 19.0.0, SVG Export Plug-In . SVG Version: 6.00 Build 0)  -->
<svg version="1.1" id="Layer_1" xmlns="http://www.w3.org/2000/svg" xmlns:xlink="http://www.w3.org/1999/xlink" x="0px" y="0px"
	 viewBox="0 0 1000 333.6" style="enable-background:new 0 0 1000 333.6;" xml:space="preserve">
<style type="text/css">
	.st0{fill:#5F4B8B;}
	.st1{fill:#FFFFFF;}
</style>
<g id="XMLID_3_">
	<path id="XMLID_4_" class="st0" d="M496.5,58.8v211.9h-9v-30.8c-5.6,10.4-13.8,18.6-24.6,24.7c-10.7,6.1-21.8,9.2-33.1,9.2
		c-18.6,0-34.5-6.5-47.6-19.6c-13.1-13.1-19.6-28.8-19.6-47c0-18.3,6.5-33.9,19.6-47c13.1-13.1,29-19.6,47.6-19.6
		c11.7,0,22.9,3.1,33.8,9.3c10.8,6.2,18.8,14.5,23.9,24.9V58.8H496.5z M371.6,207.3c0,15.9,5.7,29.7,17,41.2
		c11.3,11.6,24.9,17.4,40.8,17.4c15.9,0,29.7-5.8,41.2-17.4c11.6-11.6,17.4-25.3,17.4-41.1c0-15.8-5.8-29.6-17.4-41.4
		c-11.6-11.8-25.3-17.7-41.1-17.7c-15.8,0-29.4,5.8-40.8,17.5C377.3,177.6,371.6,191.4,371.6,207.3z"/>
	<path id="XMLID_7_" class="st0" d="M632.6,143.6h9v127.1h-9V245c-9.6,19.2-26,28.8-49.2,28.8c-15.8,0-29.1-5.5-39.8-16.4
		c-10.7-10.9-16.1-24.2-16.1-39.8v-74h9v74c0,13,4.6,24.3,13.7,33.9c9.1,9.6,20.2,14.4,33.2,14.4s24.4-4.8,34.3-14.4
		c9.9-9.6,14.8-20.9,14.8-33.9V143.6z"/>
	<path id="XMLID_11_" class="st0" d="M721.1,265.4v7.9c-13.4,0-24.8-4.5-34.2-13.4c-9.4-8.9-14.1-20.4-14.1-34.3V58.8h9v166.7
		c0,11.5,3.8,21,11.4,28.5C700.9,261.6,710.1,265.4,721.1,265.4z"/>
	<path id="XMLID_17_" class="st0" d="M794,274.4h-2.5c-18.1,0-33.6-6.7-46.6-20.1c-13-13.4-19.5-29.1-19.5-47
		c0-18,6.6-33.5,19.8-46.6c13.2-13.1,29.4-19.6,48.6-19.6c19.2,0,35.6,7.3,49.2,21.8v14.4c-5.8-8.7-13.2-15.5-22.2-20.6
		c-8.9-5.1-18.3-7.6-28.1-7.6c-15.6,0-29.2,5.8-40.8,17.4c-11.6,11.6-17.4,25.4-17.4,41.4c0,16,5.8,29.8,17.4,41.4
		c11.6,11.6,25.2,17.4,40.8,17.4c9.8,0,19.2-2.5,28.1-7.6c8.9-5.1,16.3-12.1,22.2-20.9v14.7C829.6,267.1,813.4,274.4,794,274.4z"/>
	<path id="XMLID_19_" class="st0" d="M930.4,274.1h-2.5c-17.9,0-33.5-6.7-46.8-20.2c-13.3-13.5-19.9-29.1-19.9-47
		c0-17.9,6.6-33.4,19.8-46.5c13.2-13.1,29.5-19.6,48.9-19.6c19.4,0,36.1,7.7,50,23.2l-88.7,87.6c12.2,9.8,24,14.7,35.3,14.7
		c11.3,0,21.4-2.6,30.4-7.8c8.9-5.2,16.3-12.1,22.2-20.8v14.4C965.6,266.8,949.4,274.1,930.4,274.1z M927.4,148.7
		c-15,0-28.3,5.8-39.8,17.4c-11.6,11.6-17.4,24.9-17.4,40c0,15.1,5,28.3,15,39.6l82.2-81.6C955.7,153.8,942.4,148.7,927.4,148.7z"/>
</g>
<ellipse id="XMLID_20_" class="st0" cx="175.5" cy="166.6" rx="154.4" ry="155.2"/>
<path id="XMLID_16_" class="st1" d="M286.5,165v12.5c-0.3,5.4-0.9,10.8-1.9,16c-2.9-7.5-21-18.6-23.5-19.1
	c-19.8-9-33.8-28.8-34.4-52c0-0.2,0-0.4,0-0.6c-0.1,0.3-0.2,0.7-0.4,1c-7.9,20.5-26.9,35.5-49.7,37.4c9.9-6.7,17.8-16.2,22.2-27.6
	c-6.8,7.4-14.6,13.9-23.1,19.3c-4.5,2.9-9.2,5.5-14.1,7.7c-9.4,4.3-19.5,7.6-30,9.3c0,0-0.1,0-0.1,0c-3.5,0.6-7,1.3-10.7,1.6
	c1.1-0.9,2.1-1.8,3.1-2.8c7.4-7.2,12.8-16.3,15.6-26.5c-6.5,12.2-17.2,21.9-30.2,27c-0.1,0-0.2,0.1-0.3,0.1
	c-3.6,1.4-7.3,2.4-11.2,3.1c-7.4,2.9-14.1,7.2-19.7,12.7c-4.1,4-7.6,8.6-10.5,13.7c-2-8.6-3-17.5-3-26.7c0-24.6,7.5-47.3,20.2-65.9
	c15.9-23.2,40-40.1,67.9-46.1c0,0,0,0,0,0c0-12.6,10.2-22.9,22.8-22.9c12.6,0,22.8,10.3,22.8,22.9c40.2,8.6,72.4,39.6,83.8,79.8
	C284.5,147.3,286,156,286.5,165z"/>
<path id="XMLID_9_" class="st1" d="M228.1,174.5c-15.7,0-29.4,8.4-37,21c-4.8-1.9-10.1-2.9-15.5-2.9s-10.7,1-15.5,2.9
	c-7.6-12.6-21.3-21-37-21c-23.9,0-43.3,19.5-43.3,43.6c0,24.1,19.4,43.6,43.3,43.6c5.5,0,10.7-1,15.5-2.9c1.8-0.7,3.6-1.5,5.3-2.5
	c13.4-7.4,22.5-21.8,22.5-38.2c0-6.2-1.3-12.1-3.6-17.4c4-1.5,8.3-2.3,12.8-2.3s8.8,0.8,12.8,2.3c-2.3,5.3-3.6,11.2-3.6,17.4
	c0,16.5,9.1,30.8,22.5,38.2c1.7,0.9,3.5,1.8,5.3,2.5c4.8,1.9,10.1,2.9,15.5,2.9c23.9,0,43.3-19.5,43.3-43.6
	C271.4,194,252,174.5,228.1,174.5z M141.1,251.2c-1.7,0.9-3.4,1.7-5.3,2.4c-4,1.5-8.3,2.3-12.8,2.3c-20.7,0-37.6-16.9-37.6-37.8
	s16.8-37.8,37.6-37.8c13.4,0,25.1,7,31.8,17.6c1,1.6,2,3.3,2.7,5.1c2,4.6,3.1,9.7,3.1,15C160.6,232.4,152.7,244.8,141.1,251.2z
	 M228.1,255.9c-4.5,0-8.8-0.8-12.8-2.3c-1.8-0.7-3.6-1.5-5.3-2.4c-11.6-6.4-19.5-18.8-19.5-33.1c0-5.3,1.1-10.4,3.1-15
	c0.8-1.8,1.7-3.5,2.7-5.1c6.6-10.6,18.4-17.6,31.8-17.6c20.7,0,37.6,16.9,37.6,37.8S248.9,255.9,228.1,255.9z"/>
</svg>
