<?xml version="1.0" encoding="utf-8"?>
<!-- Generator: Adobe Illustrator 19.0.0, SVG Export Plug-In . SVG Version: 6.00 Build 0)  -->
<svg version="1.1" id="Layer_1" xmlns="http://www.w3.org/2000/svg" xmlns:xlink="http://www.w3.org/1999/xlink" x="0px" y="0px"
	 viewBox="0 0 298.5 104.2" style="enable-background:new 0 0 298.5 104.2;" xml:space="preserve">
<style type="text/css">
	.st0{fill:#722878;}
</style>
<g id="XMLID_28_">
	<path id="XMLID_38_" class="st0" d="M64.8,0v102.5h-4.4V87.6c-2.7,5-6.7,9-11.9,12c-5.2,3-10.5,4.4-16,4.4c-9,0-16.7-3.2-23-9.5
		C3.2,88.1,0,80.6,0,71.7C0,62.9,3.2,55.3,9.5,49c6.3-6.3,14-9.5,23-9.5c5.6,0,11.1,1.5,16.3,4.5c5.2,3,9.1,7,11.5,12V0H64.8z
		 M4.4,71.8c0,7.7,2.7,14.3,8.2,19.9c5.5,5.6,12,8.4,19.7,8.4c7.7,0,14.3-2.8,19.9-8.4c5.6-5.6,8.4-12.2,8.4-19.9
		c0-7.7-2.8-14.3-8.4-20c-5.6-5.7-12.2-8.5-19.9-8.5c-7.7,0-14.2,2.8-19.7,8.5C7.1,57.4,4.4,64.1,4.4,71.8z"/>
	<path id="XMLID_36_" class="st0" d="M130.6,41h4.4v61.5h-4.4V90C126,99.3,118,104,106.8,104c-7.7,0-14.1-2.6-19.3-7.9
		c-5.2-5.3-7.8-11.7-7.8-19.3V41h4.4v35.8c0,6.3,2.2,11.7,6.6,16.4c4.4,4.6,9.8,7,16.1,7s11.8-2.3,16.6-7c4.8-4.6,7.2-10.1,7.2-16.4
		V41z"/>
	<path id="XMLID_34_" class="st0" d="M173.4,99.9v3.8c-6.5,0-12-2.2-16.5-6.5c-4.6-4.3-6.8-9.9-6.8-16.6V0h4.4v80.6
		c0,5.6,1.8,10.2,5.5,13.8C163.6,98.1,168.1,99.9,173.4,99.9z"/>
	<path id="XMLID_32_" class="st0" d="M208.6,104.2h-1.2c-8.7,0-16.3-3.2-22.5-9.7c-6.3-6.5-9.4-14.1-9.4-22.7
		c0-8.7,3.2-16.2,9.6-22.5c6.4-6.3,14.2-9.5,23.5-9.5c9.3,0,17.2,3.5,23.8,10.5v7c-2.8-4.2-6.4-7.5-10.7-10
		c-4.3-2.5-8.9-3.7-13.6-3.7c-7.6,0-14.1,2.8-19.7,8.4c-5.6,5.6-8.4,12.3-8.4,20c0,7.7,2.8,14.4,8.4,20s12.2,8.4,19.7,8.4
		c4.7,0,9.3-1.2,13.6-3.7c4.3-2.5,7.9-5.8,10.7-10.1v7.1C225.9,100.7,218,104.2,208.6,104.2z"/>
	<path id="XMLID_29_" class="st0" d="M274.6,104.1h-1.2c-8.7,0-16.2-3.3-22.6-9.8c-6.4-6.5-9.6-14.1-9.6-22.7
		c0-8.7,3.2-16.1,9.6-22.5c6.4-6.3,14.3-9.5,23.6-9.5c9.4,0,17.4,3.7,24.2,11.2l-42.9,42.4c5.9,4.7,11.6,7.1,17.1,7.1
		c5.5,0,10.4-1.3,14.7-3.8c4.3-2.5,7.9-5.9,10.7-10v7C291.6,100.6,283.8,104.1,274.6,104.1z M273.2,43.4c-7.2,0-13.7,2.8-19.3,8.4
		c-5.6,5.6-8.4,12-8.4,19.3c0,7.3,2.4,13.7,7.2,19.1l39.8-39.5C286.9,45.9,280.4,43.4,273.2,43.4z"/>
</g>
</svg>
