<?xml version="1.0" encoding="utf-8"?>
<!-- Generator: Adobe Illustrator 19.0.0, SVG Export Plug-In . SVG Version: 6.00 Build 0)  -->
<svg version="1.1" id="Layer_1" xmlns="http://www.w3.org/2000/svg" xmlns:xlink="http://www.w3.org/1999/xlink" x="0px" y="0px"
	 viewBox="-85 25.8 298.5 104.2" style="enable-background:new -85 25.8 298.5 104.2;" xml:space="preserve">
<style type="text/css">
	.st0{fill:#1A1515;}
</style>
<g id="XMLID_28_">
	<path id="XMLID_38_" class="st0" d="M-20.2,25.8v102.5h-4.4v-14.9c-2.7,5-6.7,9-11.9,12c-5.2,3-10.5,4.4-16,4.4
		c-9,0-16.7-3.2-23-9.5c-6.3-6.4-9.5-13.9-9.5-22.8c0-8.8,3.2-16.4,9.5-22.7s14-9.5,23-9.5c5.6,0,11.1,1.5,16.3,4.5s9.1,7,11.5,12
		v-56H-20.2z M-80.6,97.6c0,7.7,2.7,14.3,8.2,19.9s12,8.4,19.7,8.4s14.3-2.8,19.9-8.4s8.4-12.2,8.4-19.9s-2.8-14.3-8.4-20
		s-12.2-8.5-19.9-8.5s-14.2,2.8-19.7,8.5C-77.9,83.2-80.6,89.9-80.6,97.6z"/>
	<path id="XMLID_36_" class="st0" d="M45.6,66.8H50v61.5h-4.4v-12.5c-4.6,9.3-12.6,14-23.8,14c-7.7,0-14.1-2.6-19.3-7.9
		c-5.2-5.3-7.8-11.7-7.8-19.3V66.8h4.4v35.8c0,6.3,2.2,11.7,6.6,16.4c4.4,4.6,9.8,7,16.1,7s11.8-2.3,16.6-7
		c4.8-4.6,7.2-10.1,7.2-16.4L45.6,66.8L45.6,66.8z"/>
	<path id="XMLID_34_" class="st0" d="M88.4,125.7v3.8c-6.5,0-12-2.2-16.5-6.5c-4.6-4.3-6.8-9.9-6.8-16.6V25.8h4.4v80.6
		c0,5.6,1.8,10.2,5.5,13.8C78.6,123.9,83.1,125.7,88.4,125.7z"/>
	<path id="XMLID_32_" class="st0" d="M123.6,130h-1.2c-8.7,0-16.3-3.2-22.5-9.7c-6.3-6.5-9.4-14.1-9.4-22.7c0-8.7,3.2-16.2,9.6-22.5
		c6.4-6.3,14.2-9.5,23.5-9.5s17.2,3.5,23.8,10.5v7c-2.8-4.2-6.4-7.5-10.7-10s-8.9-3.7-13.6-3.7c-7.6,0-14.1,2.8-19.7,8.4
		c-5.6,5.6-8.4,12.3-8.4,20s2.8,14.4,8.4,20s12.2,8.4,19.7,8.4c4.7,0,9.3-1.2,13.6-3.7s7.9-5.8,10.7-10.1v7.1
		C140.9,126.5,133,130,123.6,130z"/>
	<path id="XMLID_29_" class="st0" d="M189.6,129.9h-1.2c-8.7,0-16.2-3.3-22.6-9.8s-9.6-14.1-9.6-22.7c0-8.7,3.2-16.1,9.6-22.5
		c6.4-6.3,14.3-9.5,23.6-9.5c9.4,0,17.4,3.7,24.2,11.2L170.7,119c5.9,4.7,11.6,7.1,17.1,7.1s10.4-1.3,14.7-3.8
		c4.3-2.5,7.9-5.9,10.7-10v7C206.6,126.4,198.8,129.9,189.6,129.9z M188.2,69.2c-7.2,0-13.7,2.8-19.3,8.4c-5.6,5.6-8.4,12-8.4,19.3
		s2.4,13.7,7.2,19.1l39.8-39.5C201.9,71.7,195.4,69.2,188.2,69.2z"/>
</g>
</svg>
