<?xml version="1.0" encoding="utf-8"?>
<!-- Generator: Adobe Illustrator 19.0.0, SVG Export Plug-In . SVG Version: 6.00 Build 0)  -->
<svg version="1.1" id="Camada_1" xmlns="http://www.w3.org/2000/svg" xmlns:xlink="http://www.w3.org/1999/xlink" x="0px" y="0px"
	 viewBox="0 0 250 310" style="enable-background:new 0 0 250 310;" xml:space="preserve">
<style type="text/css">
	.st0{fill:#240032;}
</style>
<g id="XMLID_2_">
	<path id="XMLID_3_" class="st0" d="M67.9,212.3v74.6h-3.2v-10.8c-2,3.6-4.9,6.5-8.7,8.7c-3.8,2.2-7.7,3.2-11.6,3.2
		c-6.6,0-12.1-2.3-16.8-6.9c-4.6-4.6-6.9-10.1-6.9-16.6c0-6.4,2.3-11.9,6.9-16.6c4.6-4.6,10.2-6.9,16.8-6.9c4.1,0,8.1,1.1,11.9,3.3
		c3.8,2.2,6.6,5.1,8.4,8.8v-40.8H67.9z M23.9,264.6c0,5.6,2,10.4,6,14.5s8.8,6.1,14.4,6.1c5.6,0,10.4-2,14.5-6.1
		c4.1-4.1,6.1-8.9,6.1-14.5s-2-10.4-6.1-14.6c-4.1-4.1-8.9-6.2-14.5-6.2S34,245.9,29.9,250C25.9,254.1,23.9,259,23.9,264.6z"/>
	<path id="XMLID_6_" class="st0" d="M115.8,242.1h3.2v44.7h-3.2v-9c-3.4,6.8-9.1,10.1-17.3,10.1c-5.6,0-10.2-1.9-14-5.8
		c-3.8-3.8-5.7-8.5-5.7-14v-26.1H82v26.1c0,4.6,1.6,8.6,4.8,11.9c3.2,3.4,7.1,5.1,11.7,5.1s8.6-1.7,12.1-5.1
		c3.5-3.4,5.2-7.4,5.2-11.9V242.1z"/>
	<path id="XMLID_8_" class="st0" d="M146.9,285v2.8c-4.7,0-8.7-1.6-12-4.7c-3.3-3.1-5-7.2-5-12.1v-58.7h3.2V271c0,4,1.3,7.4,4,10
		C139.8,283.7,143.1,285,146.9,285z"/>
	<path id="XMLID_10_" class="st0" d="M172.6,288.2h-0.9c-6.4,0-11.8-2.4-16.4-7.1c-4.6-4.7-6.9-10.2-6.9-16.6c0-6.3,2.3-11.8,7-16.4
		c4.6-4.6,10.3-6.9,17.1-6.9s12.5,2.6,17.3,7.7v5.1c-2.1-3-4.7-5.5-7.8-7.3c-3.1-1.8-6.4-2.7-9.9-2.7c-5.5,0-10.3,2-14.4,6.1
		c-4.1,4.1-6.1,8.9-6.1,14.6c0,5.6,2,10.5,6.1,14.6c4.1,4.1,8.9,6.1,14.4,6.1c3.4,0,6.7-0.9,9.9-2.7c3.1-1.8,5.8-4.2,7.8-7.4v5.2
		C185.1,285.6,179.4,288.2,172.6,288.2z"/>
	<path id="XMLID_13_" class="st0" d="M220.6,288.1h-0.9c-6.3,0-11.8-2.4-16.5-7.1c-4.7-4.7-7-10.3-7-16.6c0-6.3,2.3-11.7,7-16.4
		c4.6-4.6,10.4-6.9,17.2-6.9c6.8,0,12.7,2.7,17.6,8.2l-31.2,30.8c4.3,3.4,8.5,5.2,12.4,5.2s7.5-0.9,10.7-2.7
		c3.1-1.8,5.8-4.3,7.8-7.3v5.1C233,285.5,227.3,288.1,220.6,288.1z M219.6,243.9c-5.3,0-9.9,2-14,6.1c-4.1,4.1-6.1,8.8-6.1,14.1
		c0,5.3,1.8,9.9,5.3,13.9l28.9-28.7C229.5,245.7,224.8,243.9,219.6,243.9z"/>
</g>
<path id="XMLID_42_" class="st0" d="M173.3,123.6c-13.1,0-24.7,7-31,17.4c-4-1.6-8.4-2.4-13-2.4c-4.6,0-9,0.8-13,2.4
	c-6.4-10.5-17.9-17.4-31-17.4c-20,0-36.3,16.2-36.3,36.3c0,20,16.2,36.3,36.3,36.3c4.6,0,9-0.8,13-2.4c1.5-0.6,3-1.3,4.4-2
	c11.2-6.2,18.9-18.1,18.9-31.8c0-5.2-1.1-10.1-3-14.5c3.4-1.2,7-1.9,10.7-1.9c3.8,0,7.4,0.7,10.7,1.9c-1.9,4.4-3,9.3-3,14.5
	c0,13.7,7.6,25.7,18.9,31.8c1.4,0.8,2.9,1.5,4.4,2c4,1.6,8.4,2.4,13,2.4c20,0,36.3-16.2,36.3-36.3
	C209.6,139.8,193.3,123.6,173.3,123.6z M100.5,187.4c-1.4,0.8-2.9,1.4-4.4,2c-3.4,1.2-7,1.9-10.7,1.9c-17.4,0-31.4-14.1-31.4-31.4
	s14.1-31.4,31.4-31.4c11.2,0,21,5.9,26.6,14.7c0.9,1.4,1.6,2.8,2.3,4.3c1.7,3.8,2.6,8.1,2.6,12.5
	C116.8,171.8,110.2,182.1,100.5,187.4z M173.3,191.3c-3.8,0-7.4-0.7-10.7-1.9c-1.5-0.6-3-1.2-4.4-2c-9.7-5.3-16.3-15.7-16.3-27.6
	c0-4.4,0.9-8.7,2.6-12.5c0.6-1.5,1.4-2.9,2.3-4.3c5.6-8.8,15.4-14.7,26.6-14.7c17.4,0,31.4,14.1,31.4,31.4S190.7,191.3,173.3,191.3z
	"/>
<path id="XMLID_11_" class="st0" d="M234.3,136.5c-3.3-2.1-6.2-4.6-8.9-7.4c-0.1,3.5-0.5,6.9-1,10.3c-0.5-1.3-1.2-2.5-1.9-3.6
	c-2.5-3.9-6-7-10.1-9c-2.2-1-4.6-1.8-7.1-2.1c-18-6.9-30.8-24.1-31.4-44.4c0-0.2,0-0.3,0-0.5c-0.1,0.3-0.2,0.5-0.3,0.8
	C167,97.7,151,110.2,132,111.7c8.3-5.5,14.9-13.5,18.5-23c-5.7,6.1-12.2,11.6-19.3,16.1c-3.8,2.4-7.7,4.5-11.8,6.4
	c-7.9,3.6-16.3,6.3-25.1,7.7c0,0-0.1,0-0.1,0c-2.9,0.5-5.9,1.1-8.9,1.3c0.9-0.7,1.8-1.5,2.6-2.3c6.2-6,10.8-13.6,13.1-22.1
	c-5.5,10.2-14.4,18.2-25.3,22.5c-0.1,0-0.2,0.1-0.3,0.1c-3,1.2-6.1,2-9.4,2.6c-6.2,2.4-11.8,6-16.5,10.5c-5,4.8-8.9,10.7-11.5,17.2
	c-2.1-6.8-3.5-13.8-4.1-21.1c0,0,0,0,0,0c-0.1-1.8-0.2-3.7-0.2-5.6c0,0,0,0,0,0c-7.3,6.3-15.6,11.5-24.4,15.5
	c7.8-5,14.8-11,20.8-17.9c1.3-1.5,2.7-3.1,3.9-4.7c0.2-1.9,0.4-3.7,0.7-5.5c0,0,0-0.1,0-0.2c0.3-1.6,0.6-3.2,0.9-4.8c0,0,0,0,0-0.1
	c7.9-36,35.9-64.4,71.6-72.8c0-0.2,0-0.4,0-0.6c0-12.2,9.9-22.2,22.2-22.2s22.2,9.9,22.2,22.2c0,0.2,0,0.4,0,0.6
	c40.3,9.5,70.8,44.5,73.6,87c0.1,0.3,0.2,0.6,0.3,1C227.3,125.8,230.4,131.5,234.3,136.5z"/>
</svg>
