<?xml version="1.0" encoding="utf-8"?>
<!-- Generator: Adobe Illustrator 19.0.0, SVG Export Plug-In . SVG Version: 6.00 Build 0)  -->
<svg version="1.1" id="Camada_1" xmlns="http://www.w3.org/2000/svg" xmlns:xlink="http://www.w3.org/1999/xlink" x="0px" y="0px"
	 viewBox="0 0 250 310" style="enable-background:new 0 0 250 310;" xml:space="preserve">
<style type="text/css">
	.st0{fill:#FFFFFF;}
	.st1{font-family:'PoiretOne-Regular';}
	.st2{font-size:99.4357px;}
</style>
<text id="XMLID_1_" transform="matrix(1 0 0 1 17.2703 286.8916)" class="st0 st1 st2">dulce</text>
<path id="XMLID_42_" class="st0" d="M173.3,123.6c-13.1,0-24.7,7-31,17.4c-4-1.6-8.4-2.4-13-2.4c-4.6,0-9,0.8-13,2.4
	c-6.4-10.5-17.9-17.4-31-17.4c-20,0-36.3,16.2-36.3,36.3c0,20,16.2,36.3,36.3,36.3c4.6,0,9-0.8,13-2.4c1.5-0.6,3-1.3,4.4-2
	c11.2-6.2,18.9-18.1,18.9-31.8c0-5.2-1.1-10.1-3-14.5c3.4-1.2,7-1.9,10.7-1.9c3.8,0,7.4,0.7,10.7,1.9c-1.9,4.4-3,9.3-3,14.5
	c0,13.7,7.6,25.7,18.9,31.8c1.4,0.8,2.9,1.5,4.4,2c4,1.6,8.4,2.4,13,2.4c20,0,36.3-16.2,36.3-36.3
	C209.6,139.8,193.3,123.6,173.3,123.6z M100.5,187.4c-1.4,0.8-2.9,1.4-4.4,2c-3.4,1.2-7,1.9-10.7,1.9c-17.4,0-31.4-14.1-31.4-31.4
	s14.1-31.4,31.4-31.4c11.2,0,21,5.9,26.6,14.7c0.9,1.4,1.6,2.8,2.3,4.3c1.7,3.8,2.6,8.1,2.6,12.5
	C116.8,171.8,110.2,182.1,100.5,187.4z M173.3,191.3c-3.8,0-7.4-0.7-10.7-1.9c-1.5-0.6-3-1.2-4.4-2c-9.7-5.3-16.3-15.7-16.3-27.6
	c0-4.4,0.9-8.7,2.6-12.5c0.6-1.5,1.4-2.9,2.3-4.3c5.6-8.8,15.4-14.7,26.6-14.7c17.4,0,31.4,14.1,31.4,31.4S190.7,191.3,173.3,191.3z
	"/>
<path id="XMLID_11_" class="st0" d="M234.3,136.5c-3.3-2.1-6.2-4.6-8.9-7.4c-0.1,3.5-0.5,6.9-1,10.3c-0.5-1.3-1.2-2.5-1.9-3.6
	c-2.5-3.9-6-7-10.1-9c-2.2-1-4.6-1.8-7.1-2.1c-18-6.9-30.8-24.1-31.4-44.4c0-0.2,0-0.3,0-0.5c-0.1,0.3-0.2,0.5-0.3,0.8
	C167,97.7,151,110.2,132,111.7c8.3-5.5,14.9-13.5,18.5-23c-5.7,6.1-12.2,11.6-19.3,16.1c-3.8,2.4-7.7,4.5-11.8,6.4
	c-7.9,3.6-16.3,6.3-25.1,7.7c0,0-0.1,0-0.1,0c-2.9,0.5-5.9,1.1-8.9,1.3c0.9-0.7,1.8-1.5,2.6-2.3c6.2-6,10.8-13.6,13.1-22.1
	c-5.5,10.2-14.4,18.2-25.3,22.5c-0.1,0-0.2,0.1-0.3,0.1c-3,1.2-6.1,2-9.4,2.6c-6.2,2.4-11.8,6-16.5,10.5c-5,4.8-8.9,10.7-11.5,17.2
	c-2.1-6.8-3.5-13.8-4.1-21.1c0,0,0,0,0,0c-0.1-1.8-0.2-3.7-0.2-5.6c0,0,0,0,0,0c-7.3,6.3-15.6,11.5-24.4,15.5
	c7.8-5,14.8-11,20.8-17.9c1.3-1.5,2.7-3.1,3.9-4.7c0.2-1.9,0.4-3.7,0.7-5.5c0,0,0-0.1,0-0.2c0.3-1.6,0.6-3.2,0.9-4.8c0,0,0,0,0-0.1
	c7.9-36,35.9-64.4,71.6-72.8c0-0.2,0-0.4,0-0.6c0-12.2,9.9-22.2,22.2-22.2s22.2,9.9,22.2,22.2c0,0.2,0,0.4,0,0.6
	c40.3,9.5,70.8,44.5,73.6,87c0.1,0.3,0.2,0.6,0.3,1C227.3,125.8,230.4,131.5,234.3,136.5z"/>
</svg>
