<?xml version="1.0" encoding="utf-8"?>
<!-- Generator: Adobe Illustrator 19.0.0, SVG Export Plug-In . SVG Version: 6.00 Build 0)  -->
<svg version="1.1" id="Camada_1" xmlns="http://www.w3.org/2000/svg" xmlns:xlink="http://www.w3.org/1999/xlink" x="0px" y="0px"
	 viewBox="0 0 325 275" style="enable-background:new 0 0 325 275;" xml:space="preserve">
<style type="text/css">
	.st0{fill:url(#XMLID_2_);}
	.st1{fill:url(#XMLID_3_);}
</style>
<linearGradient id="XMLID_2_" gradientUnits="userSpaceOnUse" x1="175.1934" y1="21.1643" x2="172.1283" y2="249.9">
	<stop  offset="0" style="stop-color:#911453"/>
	<stop  offset="1" style="stop-color:#1D2040"/>
</linearGradient>
<path id="XMLID_42_" class="st0" d="M234.6,166.7c-18.5,0-34.8,9.8-43.7,24.6c-5.7-2.2-11.9-3.4-18.3-3.4s-12.6,1.2-18.3,3.4
	c-9-14.8-25.2-24.6-43.7-24.6c-28.2,0-51.2,22.9-51.2,51.2c0,28.2,22.9,51.2,51.2,51.2c6.4,0,12.6-1.2,18.3-3.4
	c2.2-0.8,4.2-1.8,6.2-2.9c15.9-8.7,26.6-25.5,26.6-44.9c0-7.3-1.5-14.2-4.3-20.5c4.7-1.7,9.8-2.7,15.2-2.7s10.4,0.9,15.2,2.7
	c-2.7,6.3-4.3,13.2-4.3,20.5c0,19.3,10.7,36.2,26.6,44.9c2,1.1,4.1,2.1,6.2,2.9c5.7,2.2,11.9,3.4,18.3,3.4
	c28.2,0,51.2-22.9,51.2-51.2C285.8,189.6,262.9,166.7,234.6,166.7z M131.9,256.7c-2,1.1-4,2-6.2,2.8c-4.7,1.7-9.8,2.7-15.2,2.7
	c-24.5,0-44.3-19.9-44.3-44.3s19.9-44.3,44.3-44.3c15.8,0,29.7,8.3,37.5,20.7c1.2,1.9,2.3,3.9,3.2,6c2.4,5.4,3.7,11.4,3.7,17.7
	C154.9,234.6,145.6,249.2,131.9,256.7z M234.6,262.2c-5.3,0-10.4-0.9-15.2-2.7c-2.2-0.8-4.2-1.7-6.2-2.8c-13.7-7.5-23-22.1-23-38.9
	c0-6.3,1.3-12.2,3.7-17.7c0.9-2.1,2-4.1,3.2-6c7.8-12.4,21.7-20.7,37.5-20.7c24.5,0,44.3,19.9,44.3,44.3S259.1,262.2,234.6,262.2z"
	/>
<linearGradient id="XMLID_3_" gradientUnits="userSpaceOnUse" x1="164.1508" y1="21.0164" x2="161.0857" y2="249.752">
	<stop  offset="0" style="stop-color:#911453"/>
	<stop  offset="1" style="stop-color:#1D2040"/>
</linearGradient>
<path id="XMLID_11_" class="st1" d="M320.6,184.8c-4.6-3-8.8-6.5-12.5-10.5c-0.2,4.9-0.6,9.7-1.4,14.5c-0.8-1.8-1.6-3.5-2.7-5.1
	c-3.5-5.4-8.4-9.8-14.3-12.6c-3.1-1.5-6.5-2.5-10-3c-25.3-9.8-43.5-34-44.2-62.6c0-0.2,0-0.4,0-0.6c-0.1,0.4-0.3,0.8-0.5,1.2
	c-9.3,24.1-31.8,41.7-58.7,43.9c11.7-7.8,21-19.1,26.2-32.4c-8.1,8.7-17.2,16.3-27.3,22.7c-5.3,3.4-10.9,6.4-16.7,9
	c-11.1,5.1-23,8.9-35.5,10.9c0,0-0.1,0-0.1,0c-4.1,0.6-8.3,1.5-12.6,1.9c1.3-1,2.5-2.1,3.7-3.3c8.7-8.4,15.2-19.1,18.5-31.1
	c-7.7,14.4-20.3,25.7-35.6,31.7c-0.1,0-0.3,0.1-0.4,0.1c-4.2,1.6-8.6,2.9-13.2,3.6c-8.7,3.4-16.6,8.5-23.2,14.9
	c-7,6.8-12.6,15-16.2,24.3c-3-9.5-4.9-19.5-5.7-29.8c0,0,0,0,0,0c-0.2-2.6-0.3-5.2-0.3-7.9c0,0,0,0-0.1,0.1
	c-10.2,8.9-21.9,16.2-34.5,21.8c11-7,20.9-15.6,29.4-25.3c1.9-2.2,3.7-4.4,5.5-6.7c0.3-2.6,0.6-5.2,1-7.8c0-0.1,0-0.2,0-0.2
	c0.4-2.3,0.8-4.5,1.3-6.8c0,0,0-0.1,0-0.1c11.1-50.7,50.6-90.8,101-102.7c0-0.3,0-0.5,0-0.8c0-17.3,14-31.3,31.3-31.3
	s31.3,14,31.3,31.3c0,0.3,0,0.5,0,0.8c56.9,13.4,99.9,62.7,103.8,122.7c0.1,0.5,0.3,0.9,0.4,1.3
	C310.7,169.7,315.1,177.8,320.6,184.8z"/>
</svg>
