<?xml version="1.0" encoding="utf-8"?>
<!-- Generator: Adobe Illustrator 19.0.0, SVG Export Plug-In . SVG Version: 6.00 Build 0)  -->
<svg version="1.1" id="Camada_1" xmlns="http://www.w3.org/2000/svg" xmlns:xlink="http://www.w3.org/1999/xlink" x="0px" y="0px"
	 viewBox="0 0 275 275" style="enable-background:new 0 0 275 275;" xml:space="preserve">
<style type="text/css">
	.st0{fill:url(#XMLID_2_);}
	.st1{fill:#FFFFFF;}
</style>
<linearGradient id="XMLID_2_" gradientUnits="userSpaceOnUse" x1="138.7698" y1="235.4203" x2="135.7046" y2="1.7039">
	<stop  offset="0" style="stop-color:#5F1F3D"/>
	<stop  offset="1" style="stop-color:#DF007F"/>
</linearGradient>
<path id="XMLID_21_" class="st0" d="M273.5,39.8v197.5c-1,19.1-15.1,34.7-33.7,37.7H36.2c-18.6-2.9-33.7-18.6-34.7-37.6V39.8
	c1-19,16-33.7,34.6-36.7h203.7C258.4,6.1,272.5,20.8,273.5,39.8z"/>
<path id="XMLID_42_" class="st1" d="M188.1,153.5c-13.7,0-25.7,7.3-32.3,18.2c-4.2-1.6-8.8-2.5-13.5-2.5s-9.3,0.9-13.5,2.5
	c-6.6-10.9-18.6-18.2-32.3-18.2c-20.9,0-37.8,16.9-37.8,37.8c0,20.9,16.9,37.8,37.8,37.8c4.8,0,9.3-0.9,13.5-2.5
	c1.6-0.6,3.1-1.3,4.6-2.1c11.7-6.4,19.6-18.9,19.6-33.1c0-5.4-1.1-10.5-3.1-15.1c3.5-1.3,7.3-2,11.2-2s7.7,0.7,11.2,2
	c-2,4.6-3.1,9.7-3.1,15.1c0,14.3,7.9,26.7,19.6,33.1c1.5,0.8,3,1.5,4.6,2.1c4.2,1.6,8.8,2.5,13.5,2.5c20.9,0,37.8-16.9,37.8-37.8
	C225.9,170.4,209,153.5,188.1,153.5z M112.3,219.9c-1.5,0.8-3,1.5-4.6,2.1c-3.5,1.3-7.3,2-11.2,2c-18.1,0-32.7-14.7-32.7-32.7
	s14.7-32.7,32.7-32.7c11.7,0,21.9,6.1,27.7,15.3c0.9,1.4,1.7,2.9,2.4,4.4c1.7,4,2.7,8.4,2.7,13C129.3,203.6,122.4,214.4,112.3,219.9
	z M188.1,224c-3.9,0-7.7-0.7-11.2-2c-1.6-0.6-3.1-1.3-4.6-2.1c-10.1-5.6-17-16.3-17-28.7c0-4.6,1-9,2.7-13c0.7-1.5,1.5-3,2.4-4.4
	c5.8-9.2,16-15.3,27.7-15.3c18.1,0,32.7,14.7,32.7,32.7S206.2,224,188.1,224z"/>
<path id="XMLID_11_" class="st1" d="M251.6,166.9c-3.4-2.2-6.5-4.8-9.2-7.7c-0.1,3.6-0.5,7.2-1,10.7c-0.6-1.3-1.2-2.6-2-3.7
	c-2.6-4-6.2-7.3-10.6-9.3c-2.3-1.1-4.8-1.8-7.4-2.2c-18.7-7.2-32.1-25.1-32.6-46.2c0-0.2,0-0.3,0-0.5c-0.1,0.3-0.2,0.6-0.3,0.9
	c-6.9,17.8-23.5,30.8-43.3,32.4c8.7-5.8,15.5-14.1,19.3-23.9c-5.9,6.4-12.7,12-20.1,16.8c-3.9,2.5-8,4.7-12.3,6.7
	c-8.2,3.7-17,6.6-26.2,8c0,0-0.1,0-0.1,0c-3,0.5-6.1,1.1-9.3,1.4c0.9-0.8,1.8-1.6,2.7-2.4c6.4-6.2,11.2-14.1,13.6-23
	c-5.7,10.6-15,19-26.3,23.4c-0.1,0-0.2,0.1-0.3,0.1c-3.1,1.2-6.4,2.1-9.7,2.7c-6.4,2.5-12.3,6.3-17.1,11c-5.2,5-9.3,11.1-12,17.9
	c-2.2-7-3.6-14.4-4.2-22c0,0,0,0,0,0c-0.1-1.9-0.2-3.9-0.2-5.8c0,0,0,0,0,0c-7.5,6.5-16.2,12-25.4,16.1c8.1-5.2,15.4-11.5,21.7-18.7
	c1.4-1.6,2.8-3.2,4-4.9c0.2-1.9,0.5-3.9,0.8-5.8c0-0.1,0-0.1,0-0.2c0.3-1.7,0.6-3.4,0.9-5c0,0,0-0.1,0-0.1
	c8.2-37.5,37.3-67,74.6-75.8c0-0.2,0-0.4,0-0.6c0-12.7,10.3-23.1,23.1-23.1c12.7,0,23.1,10.3,23.1,23.1c0,0.2,0,0.4,0,0.6
	c42,9.9,73.7,46.3,76.6,90.6c0.1,0.3,0.2,0.7,0.3,1C244.3,155.7,247.6,161.7,251.6,166.9z"/>
</svg>
