<?xml version="1.0" encoding="utf-8"?>
<!-- Generator: Adobe Illustrator 19.0.0, SVG Export Plug-In . SVG Version: 6.00 Build 0)  -->
<svg version="1.1" id="Camada_1" xmlns="http://www.w3.org/2000/svg" xmlns:xlink="http://www.w3.org/1999/xlink" x="0px" y="0px"
	 viewBox="0 0 610 300" style="enable-background:new 0 0 610 300;" xml:space="preserve">
<style type="text/css">
	.st0{fill:#240032;}
</style>
<g id="XMLID_2_">
	<path id="XMLID_3_" class="st0" d="M140.1,38.8v201.9h-8.6v-29.3c-5.4,9.9-13.2,17.7-23.4,23.6c-10.2,5.8-20.7,8.7-31.5,8.7
		c-17.8,0-32.9-6.2-45.4-18.7c-12.5-12.5-18.7-27.4-18.7-44.8c0-17.4,6.2-32.3,18.7-44.8c12.5-12.5,27.6-18.7,45.4-18.7
		c11.1,0,21.8,3,32.2,8.9c10.3,5.9,17.9,13.8,22.7,23.7V38.8H140.1z M21.1,180.2c0,15.2,5.4,28.3,16.2,39.3
		c10.8,11,23.7,16.6,38.9,16.6c15.2,0,28.3-5.5,39.3-16.6s16.6-24.1,16.6-39.2c0-15.1-5.5-28.2-16.6-39.4
		c-11-11.2-24.1-16.8-39.2-16.8c-15.1,0-28,5.6-38.9,16.7C26.5,151.9,21.1,165.1,21.1,180.2z"/>
	<path id="XMLID_6_" class="st0" d="M269.8,119.5h8.6v121.1h-8.6v-24.5c-9.2,18.3-24.8,27.5-46.8,27.5c-15.1,0-27.7-5.2-38-15.6
		c-10.2-10.4-15.3-23.1-15.3-38v-70.5h8.6V190c0,12.4,4.3,23.2,13.1,32.3c8.7,9.2,19.2,13.7,31.6,13.7c12.4,0,23.3-4.6,32.7-13.7
		c9.4-9.2,14.1-19.9,14.1-32.3V119.5z"/>
	<path id="XMLID_8_" class="st0" d="M354.1,235.5v7.5c-12.7,0-23.6-4.3-32.6-12.8c-9-8.5-13.5-19.4-13.5-32.7V38.8h8.6v158.8
		c0,10.9,3.6,20,10.9,27.2C334.8,232,343.6,235.5,354.1,235.5z"/>
	<path id="XMLID_10_" class="st0" d="M423.5,244.2h-2.4c-17.2,0-32-6.4-44.4-19.1c-12.4-12.7-18.6-27.7-18.6-44.8
		c0-17.1,6.3-31.9,18.8-44.4c12.6-12.5,28-18.7,46.3-18.7c18.3,0,33.9,6.9,46.8,20.7v13.7c-5.6-8.3-12.6-14.8-21.1-19.7
		c-8.5-4.8-17.5-7.3-26.8-7.3c-14.9,0-27.9,5.5-38.9,16.6s-16.6,24.2-16.6,39.4c0,15.3,5.5,28.4,16.6,39.4s24,16.6,38.9,16.6
		c9.3,0,18.3-2.4,26.8-7.3c8.5-4.8,15.6-11.5,21.1-19.9v14C457.5,237.2,442,244.2,423.5,244.2z"/>
	<path id="XMLID_12_" class="st0" d="M553.5,243.9h-2.4c-17.1,0-31.9-6.4-44.6-19.2c-12.7-12.8-19-27.8-19-44.8
		c0-17,6.3-31.8,18.8-44.3c12.6-12.5,28.1-18.7,46.6-18.7c18.5,0,34.4,7.4,47.6,22.1l-84.5,83.5c11.7,9.3,22.9,14,33.6,14
		c10.8,0,20.4-2.5,28.9-7.4c8.5-4.9,15.6-11.5,21.1-19.8v13.7C587.1,236.9,571.7,243.9,553.5,243.9z M550.7,124.4
		c-14.3,0-26.9,5.5-38,16.6c-11,11-16.6,23.7-16.6,38.1c0,14.4,4.8,26.9,14.3,37.7l78.3-77.8C577.7,129.2,565,124.4,550.7,124.4z"/>
</g>
</svg>
