<?xml version="1.0" encoding="utf-8"?>
<!-- Generator: Adobe Illustrator 19.0.0, SVG Export Plug-In . SVG Version: 6.00 Build 0)  -->
<svg version="1.1" id="Layer_1" xmlns="http://www.w3.org/2000/svg" xmlns:xlink="http://www.w3.org/1999/xlink" x="0px" y="0px"
	 viewBox="3 2.7 463.8 150.2" style="enable-background:new 3 2.7 463.8 150.2;" xml:space="preserve">
<style type="text/css">
	.st0{fill:#1A1617;}
	.st1{fill:#F1F1F1;}
	.st2{fill:#1A1616;}
</style>
<g id="XMLID_3_">
	<path id="XMLID_4_" class="st0" d="M232.9,25.7v102.5h-4.4v-14.9c-2.7,5-6.7,9-11.9,12c-5.2,3-10.5,4.4-16,4.4
		c-9,0-16.7-3.2-23-9.5s-9.5-13.9-9.5-22.7s3.2-16.4,9.5-22.7c6.3-6.3,14-9.5,23-9.5c5.6,0,11.1,1.5,16.3,4.5s9.1,7,11.5,12v-56
		L232.9,25.7L232.9,25.7z M172.5,97.5c0,7.7,2.7,14.3,8.2,19.9s12,8.4,19.7,8.4s14.3-2.8,19.9-8.4c5.6-5.6,8.4-12.2,8.4-19.9
		s-2.8-14.3-8.4-20c-5.6-5.7-12.2-8.5-19.9-8.5s-14.2,2.8-19.7,8.5C175.3,83.1,172.5,89.8,172.5,97.5z"/>
	<path id="XMLID_7_" class="st0" d="M298.8,66.6h4.4v61.5h-4.4v-12.4c-4.6,9.3-12.6,13.9-23.8,13.9c-7.7,0-14.1-2.6-19.3-7.9
		c-5.2-5.3-7.8-11.7-7.8-19.3V66.6h4.4v35.8c0,6.3,2.2,11.7,6.6,16.4c4.4,4.6,9.8,7,16.1,7s11.8-2.3,16.6-7
		c4.8-4.6,7.2-10.1,7.2-16.4L298.8,66.6L298.8,66.6z"/>
	<path id="XMLID_11_" class="st0" d="M341.5,125.5v3.8c-6.5,0-12-2.2-16.5-6.5c-4.6-4.3-6.8-9.9-6.8-16.6V25.7h4.4v80.6
		c0,5.6,1.8,10.2,5.5,13.8C331.7,123.7,336.2,125.5,341.5,125.5z"/>
	<path id="XMLID_17_" class="st0" d="M376.8,129.9h-1.2c-8.7,0-16.3-3.2-22.5-9.7c-6.3-6.5-9.4-14.1-9.4-22.7
		c0-8.7,3.2-16.2,9.6-22.5s14.2-9.5,23.5-9.5S394,69,400.6,76v7c-2.8-4.2-6.4-7.5-10.7-10c-4.3-2.5-8.9-3.7-13.6-3.7
		c-7.6,0-14.1,2.8-19.7,8.4s-8.4,12.3-8.4,20s2.8,14.4,8.4,20s12.2,8.4,19.7,8.4c4.7,0,9.3-1.2,13.6-3.7c4.3-2.5,7.9-5.8,10.7-10.1
		v7.1C394,126.4,386.1,129.9,376.8,129.9z"/>
	<path id="XMLID_19_" class="st0" d="M442.8,129.8h-1.2c-8.7,0-16.2-3.3-22.6-9.8s-9.6-14.1-9.6-22.7c0-8.7,3.2-16.1,9.6-22.5
		c6.4-6.3,14.3-9.5,23.6-9.5c9.4,0,17.4,3.7,24.2,11.2l-42.9,42.4c5.9,4.7,11.6,7.1,17.1,7.1s10.4-1.3,14.7-3.8
		c4.3-2.5,7.9-5.9,10.7-10v7C459.8,126.2,452,129.8,442.8,129.8z M441.3,69.1c-7.2,0-13.7,2.8-19.3,8.4c-5.6,5.6-8.4,12-8.4,19.3
		s2.4,13.7,7.2,19.1l39.8-39.5C455,71.6,448.6,69.1,441.3,69.1z"/>
</g>
<path id="XMLID_9_" class="st1" d="M71.5,94.3L71.5,94.3c0.3,0.6,0.5,1.3,0.7,2C72,95.6,71.8,94.9,71.5,94.3z M87.4,93.5
	c0.1-0.2,0.2-0.4,0.4-0.6c0.2-0.3,0.4-0.6,0.6-0.9C88,92.5,87.7,93,87.4,93.5z M88.4,92c0.2-0.3,0.5-0.6,0.7-0.9
	C88.8,91.4,88.6,91.7,88.4,92z M93.3,87.3c1.3-0.8,2.6-1.5,4.1-2C95.9,85.8,94.5,86.5,93.3,87.3z M103.1,84.4
	c-1.3,0-2.5,0.1-3.7,0.4C100.6,84.5,101.9,84.4,103.1,84.4c0.3,0,0.5,0,0.8,0C103.7,84.4,103.4,84.4,103.1,84.4z M110.2,85.8
	c0.5,0.2,1.1,0.5,1.6,0.8C111.3,86.3,110.7,86.1,110.2,85.8z M116,89.8c0.6,0.6,1.2,1.3,1.7,2C117.2,91,116.6,90.4,116,89.8z
	 M118.5,92.9c-0.1-0.1-0.2-0.3-0.3-0.4c0.1,0.2,0.3,0.5,0.4,0.7C118.6,93.1,118.5,93,118.5,92.9z M119.8,95.4c0-0.1-0.1-0.1-0.1-0.2
	c0.2,0.4,0.3,0.8,0.5,1.2C120.1,96.1,119.9,95.7,119.8,95.4z M120.2,109c0.2-0.6,0.4-1.1,0.5-1.7C120.6,107.8,120.4,108.4,120.2,109
	z M120.2,96.4c0.3,0.7,0.5,1.4,0.6,2.2C120.7,97.8,120.4,97.1,120.2,96.4z M120.9,106.4c0.1-0.6,0.2-1.2,0.3-1.8
	C121.1,105.2,121,105.8,120.9,106.4z M121.3,102.7c0-0.6,0-1.3-0.1-1.9C121.3,101.4,121.3,102,121.3,102.7c0,0.6,0,1.3-0.1,1.9
	C121.3,103.9,121.3,103.3,121.3,102.7z"/>
<path id="XMLID_2_" class="st2" d="M77.7,2.7C36.5,2.7,3,36.3,3,77.8s33.4,75.1,74.7,75.1c41.2,0,74.7-33.6,74.7-75.1
	S118.9,2.7,77.7,2.7z M103.1,123.8c-2.6,0-5.2-0.5-7.5-1.4c-0.9-0.3-1.7-0.7-2.6-1.2c-4.1-2.2-7.3-5.8-9.2-10.1
	c-0.3-0.6-0.5-1.3-0.7-2c-0.1-0.3-0.2-0.7-0.3-1c-0.2-0.7-0.3-1.4-0.4-2.1c-0.2-1.1-0.3-2.2-0.3-3.3c0-0.8,0-1.5,0.1-2.2
	c0.2-1.8,0.6-3.6,1.2-5.2c0.1-0.3,0.3-0.7,0.4-1c-1.9-0.7-4-1.1-6.2-1.1s-4.3,0.4-6.2,1.1l0,0c0.3,0.6,0.5,1.3,0.8,2
	c0.7,2,1,4.2,1,6.5c0,4-1.1,7.7-3,10.9c-0.7,1.2-1.5,2.3-2.5,3.3c-0.3,0.3-0.6,0.7-1,1c-1.3,1.3-2.8,2.4-4.4,3.3
	c-0.8,0.5-1.7,0.8-2.5,1.2c-2.3,0.9-4.9,1.4-7.5,1.4c-5.8,0-11-2.4-14.8-6.2c-0.2-0.2-0.5-0.5-0.7-0.7c-0.5-0.5-0.9-1-1.3-1.6
	c-0.4-0.5-0.8-1.1-1.1-1.7s-0.7-1.2-1-1.8c-0.2-0.3-0.3-0.6-0.4-0.9c-0.3-0.6-0.5-1.3-0.7-1.9c-0.2-0.7-0.4-1.3-0.5-2
	c-0.3-1.4-0.4-2.8-0.4-4.3s0.2-2.9,0.4-4.3c0.1-0.7,0.3-1.4,0.5-2c0.2-0.7,0.4-1.3,0.7-1.9c0.1-0.3,0.3-0.6,0.4-0.9
	c0.3-0.6,0.6-1.2,1-1.8c0.4-0.6,0.7-1.1,1.1-1.7c0.4-0.5,0.8-1.1,1.3-1.6c0.2-0.3,0.5-0.5,0.7-0.7c3.8-3.8,9-6.2,14.8-6.2
	c5.7,0,10.9,2.3,14.6,6c0.6,0.6,1.2,1.3,1.8,2c0.5,0.7,1,1.4,1.5,2.2c2.3-0.9,4.9-1.4,7.5-1.4s5.2,0.5,7.5,1.4
	c3.7-6.1,10.3-10.1,17.9-10.1c11.6,0,21,9.4,21,21.1C124.1,114.3,114.7,123.8,103.1,123.8z M130.4,90.8c-1.4-3.6-10.1-9-11.4-9.2
	c-9.6-4.4-16.3-13.9-16.6-25.1c0-0.1,0-0.2,0-0.3c-0.1,0.2-0.1,0.3-0.2,0.5c-3.8,9.9-13,17.2-24,18.1c4.8-3.2,8.6-7.8,10.7-13.3
	c-3.3,3.6-7.1,6.7-11.2,9.4c-2.2,1.4-4.5,2.6-6.8,3.7c-4.5,2.1-9.4,3.7-14.5,4.5l0,0c-1.7,0.3-3.4,0.6-5.2,0.8
	c0.5-0.4,1-0.9,1.5-1.4c3.6-3.5,6.2-7.9,7.6-12.8c-3.1,5.9-8.3,10.6-14.6,13.1c0,0-0.1,0-0.2,0.1c-1.7,0.7-3.5,1.2-5.4,1.5
	c-3.6,1.4-6.8,3.5-9.5,6.1c-2,1.9-3.7,4.2-5.1,6.6c-1-4.1-1.5-8.5-1.5-12.9c0-11.9,3.6-22.9,9.8-31.9C41.5,37.1,53.1,28.9,66.6,26
	l0,0c0-6.1,4.9-11.1,11-11.1s11,5,11,11.1c19.4,4.2,35,19.2,40.5,38.6c1.2,4,1.9,8.3,2.1,12.6v6.1C131.2,85.7,130.9,88.3,130.4,90.8
	z"/>
<path id="XMLID_1_" class="st2" d="M70.4,102.7c0,6.9-3.8,12.9-9.4,16c-0.8,0.5-1.7,0.8-2.5,1.2c-1.9,0.7-4,1.1-6.2,1.1
	c-10,0-18.2-8.2-18.2-18.3s8.1-18.3,18.2-18.3c6.5,0,12.1,3.4,15.4,8.5c0.5,0.8,0.9,1.6,1.3,2.5C69.9,97.6,70.4,100.1,70.4,102.7z"
	/>
<path id="XMLID_43_" class="st2" d="M121.3,102.7c0,0.6,0,1.3-0.1,1.9l0,0c-0.1,0.6-0.2,1.2-0.3,1.8c-0.1,0.3-0.1,0.6-0.2,0.9
	c-0.1,0.6-0.3,1.2-0.5,1.7c-0.1,0.3-0.2,0.6-0.3,0.8c-0.1,0.2-0.2,0.5-0.3,0.7v0.1c-0.1,0.2-0.2,0.4-0.3,0.6
	c-0.1,0.3-0.3,0.6-0.5,0.9s-0.4,0.6-0.6,0.9c-0.1,0.1-0.1,0.2-0.2,0.3c-0.1,0.2-0.3,0.4-0.4,0.5s-0.2,0.2-0.3,0.4
	c-0.2,0.3-0.4,0.5-0.7,0.8c-0.3,0.3-0.5,0.6-0.8,0.8c0,0,0,0-0.1,0c-0.3,0.3-0.6,0.5-0.8,0.8c-0.6,0.5-1.3,1-1.9,1.4
	c-0.2,0.1-0.3,0.2-0.5,0.3c-0.2,0.1-0.4,0.2-0.5,0.3c-0.2,0.1-0.4,0.2-0.6,0.3c-0.2,0.1-0.4,0.2-0.6,0.3c-0.2,0.1-0.4,0.2-0.7,0.3
	c-0.2,0.1-0.4,0.2-0.6,0.3c-0.4,0.1-0.7,0.3-1.1,0.4h-0.1c-0.4,0.1-0.7,0.2-1.1,0.3c-0.3,0.1-0.5,0.1-0.8,0.2
	c-1,0.2-2.1,0.3-3.2,0.3c-0.3,0-0.6,0-0.9,0s-0.6,0-0.9-0.1c-0.6-0.1-1.2-0.2-1.8-0.3c-0.3-0.1-0.5-0.1-0.8-0.2s-0.7-0.2-1-0.3
	c-0.3-0.1-0.5-0.2-0.8-0.3l0,0c-0.3-0.1-0.5-0.2-0.8-0.3c-0.3-0.1-0.5-0.2-0.8-0.4c-0.3-0.1-0.5-0.2-0.7-0.4
	c-0.3-0.2-0.6-0.4-0.9-0.5c-0.2-0.1-0.4-0.2-0.5-0.3c-0.5-0.4-1-0.7-1.5-1.1c-0.1-0.1-0.3-0.2-0.4-0.3c-0.1-0.1-0.2-0.2-0.4-0.3
	c-0.2-0.2-0.3-0.3-0.5-0.5c-0.4-0.4-0.8-0.8-1.2-1.3c-0.2-0.2-0.4-0.5-0.5-0.7c-0.2-0.2-0.3-0.5-0.5-0.7c-0.3-0.5-0.6-1-0.9-1.5
	c-0.1-0.3-0.3-0.5-0.4-0.8c0,0,0,0,0-0.1c-0.1-0.2-0.2-0.5-0.3-0.7c-0.1-0.3-0.2-0.5-0.3-0.8c-0.1-0.3-0.2-0.6-0.3-0.9
	c-0.1-0.3-0.2-0.6-0.3-0.9c-0.1-0.3-0.1-0.5-0.2-0.8v-0.1c-0.1-0.3-0.1-0.6-0.2-0.9c0-0.2-0.1-0.5-0.1-0.7c0-0.1,0-0.3,0-0.4
	c0-0.2,0-0.4,0-0.6c0-0.3,0-0.7,0-1.1c0-0.3,0-0.7,0-1c0-0.6,0.1-1.2,0.2-1.8c0.1-0.3,0.1-0.7,0.2-1s0.1-0.6,0.2-0.9
	s0.1-0.5,0.2-0.8s0.1-0.5,0.2-0.7c0.3-0.8,0.6-1.6,1-2.4c0.1-0.2,0.2-0.4,0.3-0.6c0.3-0.5,0.6-1,1-1.5c0.2-0.3,0.4-0.6,0.7-0.9l0,0
	c0.2-0.3,0.5-0.5,0.7-0.8l0,0c0.3-0.3,0.5-0.5,0.8-0.8c0.5-0.5,1.1-1,1.7-1.5c0.3-0.2,0.6-0.4,0.9-0.6c1.3-0.8,2.6-1.5,4.1-2
	c0.2-0.1,0.4-0.1,0.7-0.2c0.5-0.1,0.9-0.3,1.4-0.4c1.2-0.3,2.4-0.4,3.7-0.4c0.3,0,0.5,0,0.8,0h0.1c0.2,0,0.4,0,0.6,0s0.3,0,0.5,0
	s0.4,0,0.6,0.1c0.1,0,0.1,0,0.2,0c0.3,0,0.5,0.1,0.8,0.1c0.6,0.1,1.2,0.3,1.7,0.5c0.3,0.1,0.6,0.2,0.8,0.3c0.3,0.1,0.5,0.2,0.8,0.3
	c0.5,0.2,1.1,0.5,1.6,0.8c0.3,0.1,0.5,0.3,0.8,0.4c0.2,0.1,0.5,0.3,0.7,0.5c0,0,0.1,0,0.1,0.1c0.2,0.1,0.4,0.3,0.6,0.5
	s0.5,0.3,0.7,0.5s0.5,0.4,0.7,0.6s0.4,0.4,0.6,0.6c0.6,0.6,1.2,1.3,1.7,2c0.2,0.2,0.3,0.5,0.5,0.7c0,0,0,0.1,0.1,0.1
	c0.1,0.1,0.2,0.3,0.3,0.4c0.1,0.1,0.1,0.2,0.2,0.3c0.1,0.3,0.3,0.5,0.4,0.8c0.2,0.4,0.4,0.8,0.6,1.2c0,0.1,0.1,0.1,0.1,0.2
	c0.1,0.3,0.3,0.7,0.4,1c0.3,0.7,0.5,1.4,0.6,2.2c0.2,0.7,0.3,1.5,0.4,2.3C121.3,101.4,121.3,102,121.3,102.7z"/>
</svg>
