<?xml version="1.0" encoding="utf-8"?>
<!-- Generator: Adobe Illustrator 19.0.0, SVG Export Plug-In . SVG Version: 6.00 Build 0)  -->
<svg version="1.1" id="Layer_1" xmlns="http://www.w3.org/2000/svg" xmlns:xlink="http://www.w3.org/1999/xlink" x="0px" y="0px"
	 viewBox="0 0 464.5 150.2" style="enable-background:new 0 0 464.5 150.2;" xml:space="preserve">
<style type="text/css">
	.st0{fill:#722878;}
</style>
<g id="XMLID_3_">
	<path id="XMLID_4_" class="st0" d="M230.7,23v102.5h-4.4v-14.9c-2.7,5-6.7,9-11.9,12c-5.2,3-10.5,4.4-16,4.4c-9,0-16.7-3.2-23-9.5
		c-6.3-6.3-9.5-13.9-9.5-22.7c0-8.8,3.2-16.4,9.5-22.7c6.3-6.3,14-9.5,23-9.5c5.6,0,11.1,1.5,16.3,4.5c5.2,3,9.1,7,11.5,12V23H230.7
		z M170.3,94.8c0,7.7,2.7,14.3,8.2,19.9c5.5,5.6,12,8.4,19.7,8.4c7.7,0,14.3-2.8,19.9-8.4c5.6-5.6,8.4-12.2,8.4-19.9
		c0-7.7-2.8-14.3-8.4-20c-5.6-5.7-12.2-8.5-19.9-8.5c-7.7,0-14.2,2.8-19.7,8.5C173.1,80.4,170.3,87.1,170.3,94.8z"/>
	<path id="XMLID_7_" class="st0" d="M296.6,63.9h4.4v61.5h-4.4V113c-4.6,9.3-12.6,13.9-23.8,13.9c-7.7,0-14.1-2.6-19.3-7.9
		c-5.2-5.3-7.8-11.7-7.8-19.3V63.9h4.4v35.8c0,6.3,2.2,11.7,6.6,16.4c4.4,4.6,9.8,7,16.1,7c6.3,0,11.8-2.3,16.6-7
		c4.8-4.6,7.2-10.1,7.2-16.4V63.9z"/>
	<path id="XMLID_11_" class="st0" d="M339.3,122.8v3.8c-6.5,0-12-2.2-16.5-6.5c-4.6-4.3-6.8-9.9-6.8-16.6V23h4.4v80.6
		c0,5.6,1.8,10.2,5.5,13.8C329.6,121,334,122.8,339.3,122.8z"/>
	<path id="XMLID_17_" class="st0" d="M374.6,127.2h-1.2c-8.7,0-16.3-3.2-22.5-9.7c-6.3-6.5-9.4-14.1-9.4-22.7
		c0-8.7,3.2-16.2,9.6-22.5c6.4-6.3,14.2-9.5,23.5-9.5c9.3,0,17.2,3.5,23.8,10.5v7c-2.8-4.2-6.4-7.5-10.7-10
		c-4.3-2.5-8.9-3.7-13.6-3.7c-7.6,0-14.1,2.8-19.7,8.4c-5.6,5.6-8.4,12.3-8.4,20c0,7.7,2.8,14.4,8.4,20c5.6,5.6,12.2,8.4,19.7,8.4
		c4.7,0,9.3-1.2,13.6-3.7c4.3-2.5,7.9-5.8,10.7-10.1v7.1C391.8,123.7,384,127.2,374.6,127.2z"/>
	<path id="XMLID_19_" class="st0" d="M440.6,127.1h-1.2c-8.7,0-16.2-3.3-22.6-9.8c-6.4-6.5-9.6-14.1-9.6-22.7
		c0-8.7,3.2-16.1,9.6-22.5c6.4-6.3,14.3-9.5,23.6-9.5c9.4,0,17.4,3.7,24.2,11.2l-42.9,42.4c5.9,4.7,11.6,7.1,17.1,7.1
		c5.5,0,10.4-1.3,14.7-3.8c4.3-2.5,7.9-5.9,10.7-10v7C457.6,123.5,449.8,127.1,440.6,127.1z M439.1,66.4c-7.2,0-13.7,2.8-19.3,8.4
		c-5.6,5.6-8.4,12-8.4,19.3c0,7.3,2.4,13.7,7.2,19.1l39.8-39.5C452.8,68.9,446.4,66.4,439.1,66.4z"/>
</g>
<g id="XMLID_1_">
	<path id="XMLID_24_" class="st0" d="M74.7,0C33.4,0,0,33.6,0,75.1c0,41.5,33.4,75.1,74.7,75.1s74.7-33.6,74.7-75.1
		C149.3,33.6,115.9,0,74.7,0z M100.1,121c-2.6,0-5.2-0.5-7.5-1.4c-0.9-0.3-1.7-0.7-2.6-1.2c-6.5-3.6-10.9-10.5-10.9-18.5
		c0-3,0.6-5.9,1.7-8.4c-1.9-0.7-4-1.1-6.2-1.1c-2.2,0-4.3,0.4-6.2,1.1c1.1,2.6,1.7,5.4,1.7,8.4c0,8-4.4,14.9-10.9,18.5
		c-0.8,0.5-1.7,0.8-2.6,1.2c-2.3,0.9-4.9,1.4-7.5,1.4c-11.6,0-21-9.4-21-21.1c0-11.6,9.4-21.1,21-21.1c7.6,0,14.2,4.1,17.9,10.1
		c2.3-0.9,4.9-1.4,7.5-1.4c2.6,0,5.2,0.5,7.5,1.4c3.7-6.1,10.3-10.1,17.9-10.1c11.6,0,21,9.4,21,21.1C121,111.6,111.7,121,100.1,121
		z M127.4,88.1c-1.4-3.6-10.1-9-11.4-9.2c-9.6-4.4-16.3-13.9-16.6-25.1c0-0.1,0-0.2,0-0.3c-0.1,0.2-0.1,0.3-0.2,0.5
		c-3.8,9.9-13,17.2-24,18.1c4.8-3.2,8.6-7.8,10.7-13.3c-3.3,3.6-7.1,6.7-11.2,9.4c-2.2,1.4-4.5,2.6-6.8,3.7
		c-4.5,2.1-9.4,3.7-14.5,4.5c0,0,0,0-0.1,0c-1.7,0.3-3.4,0.6-5.2,0.8c0.5-0.4,1-0.9,1.5-1.4c3.6-3.5,6.2-7.9,7.6-12.8
		c-3.1,5.9-8.3,10.6-14.6,13.1c-0.1,0-0.1,0-0.2,0.1c-1.7,0.7-3.5,1.2-5.4,1.5c-3.6,1.4-6.8,3.5-9.5,6.1c-2,1.9-3.7,4.2-5.1,6.6
		c-1-4.1-1.5-8.5-1.5-12.9c0-11.9,3.6-22.9,9.8-31.9c7.7-11.2,19.3-19.4,32.8-22.3c0,0,0,0,0,0c0-6.1,4.9-11.1,11-11.1
		c6.1,0,11,5,11,11.1c19.4,4.2,35,19.2,40.5,38.6c1.2,4,1.9,8.2,2.1,12.6v6.1C128.2,83,127.9,85.6,127.4,88.1z"/>
	<path id="XMLID_26_" class="st0" d="M64.6,90.2c-3.2-5.1-8.9-8.5-15.4-8.5c-10,0-18.2,8.2-18.2,18.3c0,10.1,8.1,18.3,18.2,18.3
		c2.2,0,4.3-0.4,6.2-1.1c0.9-0.3,1.7-0.7,2.5-1.2c5.6-3.1,9.4-9.1,9.4-16c0-2.6-0.5-5-1.5-7.3C65.5,91.8,65.1,91,64.6,90.2z"/>
	<path id="XMLID_27_" class="st0" d="M100.1,81.7c-6.5,0-12.1,3.4-15.4,8.5c-0.5,0.8-0.9,1.6-1.3,2.5c-1,2.2-1.5,4.7-1.5,7.3
		c0,6.9,3.8,12.9,9.4,16c0.8,0.5,1.7,0.8,2.5,1.2c1.9,0.7,4,1.1,6.2,1.1c10,0,18.2-8.2,18.2-18.3C118.3,89.9,110.1,81.7,100.1,81.7z
		"/>
</g>
</svg>
