<?xml version="1.0" encoding="utf-8"?>
<!-- Generator: Adobe Illustrator 19.0.0, SVG Export Plug-In . SVG Version: 6.00 Build 0)  -->
<svg version="1.1" id="Layer_1" xmlns="http://www.w3.org/2000/svg" xmlns:xlink="http://www.w3.org/1999/xlink" x="0px" y="0px"
	 viewBox="0 0 155 155" style="enable-background:new 0 0 155 155;" xml:space="preserve">
<style type="text/css">
	.st0{fill:#FFFFFF;}
	.st1{fill:#1A1616;}
</style>
<circle id="XMLID_434_" class="st0" cx="77.6" cy="78.2" r="66"/>
<path id="XMLID_442_" class="st1" d="M77.6,3.1C36.4,3.1,3,36.7,3,78.2c0,41.5,33.4,75.1,74.7,75.1c41.2,0,74.7-33.6,74.7-75.1
	C152.3,36.7,118.9,3.1,77.6,3.1z M103,124.1c-2.6,0-5.2-0.5-7.5-1.4c-0.9-0.3-1.7-0.7-2.5-1.2c-6.5-3.6-10.9-10.5-10.9-18.5
	c0-3,0.6-5.8,1.8-8.4c-1.9-0.7-4-1.1-6.2-1.1c-2.2,0-4.3,0.4-6.2,1.1c1.1,2.6,1.8,5.4,1.8,8.4c0,8-4.4,14.9-10.9,18.5
	c-0.8,0.5-1.7,0.8-2.6,1.2c-2.3,0.9-4.9,1.4-7.5,1.4c-11.6,0-21-9.4-21-21.1S40.6,82,52.2,82c7.6,0,14.2,4,17.9,10.1
	c2.3-0.9,4.9-1.4,7.5-1.4c2.6,0,5.2,0.5,7.5,1.4C88.8,86,95.5,82,103,82c11.6,0,21,9.4,21,21.1S114.6,124.1,103,124.1z M130.3,91.2
	c-1.4-3.6-10.1-9-11.4-9.2c-9.6-4.4-16.3-13.9-16.6-25.1c0-0.1,0-0.2,0-0.3c-0.1,0.2-0.1,0.3-0.2,0.5c-3.8,9.9-13,17.2-24,18.1
	c4.8-3.2,8.6-7.8,10.7-13.3c-3.3,3.6-7.1,6.7-11.2,9.4c-2.2,1.4-4.5,2.6-6.8,3.7c-4.5,2.1-9.4,3.7-14.5,4.5c0,0,0,0-0.1,0
	c-1.7,0.3-3.4,0.6-5.1,0.8c0.5-0.4,1-0.9,1.5-1.4c3.5-3.5,6.2-7.9,7.6-12.8C57,71.9,51.8,76.5,45.6,79c0,0-0.1,0-0.1,0.1
	c-1.7,0.7-3.5,1.2-5.4,1.5c-3.6,1.4-6.8,3.5-9.5,6.1c-2,1.9-3.7,4.2-5.1,6.6c-1-4.1-1.5-8.5-1.5-12.9c0-11.9,3.6-22.9,9.8-31.9
	c7.7-11.2,19.3-19.4,32.8-22.3c0,0,0,0,0,0c0-6.1,4.9-11.1,11-11.1c6.1,0,11,5,11,11.1c19.4,4.2,35,19.2,40.5,38.6
	c1.2,4,1.9,8.3,2.1,12.6v6.1C131.1,86.1,130.8,88.7,130.3,91.2z M103,84.8c-6.5,0-12.2,3.4-15.4,8.5c-0.5,0.8-0.9,1.6-1.3,2.5
	c-1,2.2-1.5,4.7-1.5,7.3c0,6.9,3.8,12.9,9.4,16c0.8,0.5,1.7,0.8,2.5,1.2c1.9,0.7,4,1.1,6.2,1.1c10,0,18.2-8.2,18.2-18.3
	C121.2,93,113.1,84.8,103,84.8z M67.6,93.3c-3.2-5.1-8.9-8.5-15.4-8.5c-10,0-18.2,8.2-18.2,18.3c0,10.1,8.1,18.3,18.2,18.3
	c2.2,0,4.3-0.4,6.2-1.1c0.9-0.3,1.7-0.7,2.5-1.2c5.6-3.1,9.4-9.1,9.4-16c0-2.6-0.5-5-1.5-7.3C68.5,94.9,68.1,94.1,67.6,93.3z"/>
</svg>
